<svg xmlns:svg="http://www.w3.org/2000/svg" xmlns="http://www.w3.org/2000/svg" width="145" height="38" viewBox="0 0 145 38" id="svg4822" version="1.1"><g id="layer1" transform="translate(0,-1014.3622)"><g id="g408" transform="matrix(0.62725737,0,0,-0.62422145,80.588371,1028.8922)" display="inline"><path d="m0 0 0-37.56-16.28 0c-0.07 0.45-0.21 0.96-0.21 1.47-0.01 11.2-0.01 22.39-0.01 33.59 0 0.71 0.03 1.42-0.01 2.13-0.04 0.82 0.31 1.13 1.12 1.12 4.74-0.02 9.48-0.01 14.22-0.01 1.31 0 1.32 0.01 0.9 1.2-0.89 2.48-1.8 4.96-2.68 7.44-0.2 0.56-0.55 0.73-1.14 0.73-4.01-0.03-8.01-0.01-12.09-0.01-0.1 0.38-0.29 0.76-0.29 1.13-0.02 3.97-0.01 7.94-0.01 11.99 0.36 0.02 0.67 0.05 0.98 0.05 6.87 0 13.74-0.01 20.61 0.02 0.66 0 0.93-0.17 1.18-0.84 1.33-3.61 2.77-7.19 4.13-10.79 1.5-3.97 2.95-7.96 4.44-11.93 0.55-1.45 1.15-2.88 1.84-4.61 0.34 0.63 0.61 1.03 0.78 1.46 1.06 2.78 2.12 5.56 3.15 8.35 0.89 2.42 1.71 4.86 2.61 7.27 0.99 2.64 2.03 5.25 3.04 7.87 0.33 0.87 0.6 1.76 0.98 2.61 0.12 0.26 0.51 0.57 0.77 0.57 7 0.03 13.99 0.03 21.07 0.03l0-60.82-16.12 0 0 37.78c-0.39-0.41-0.67-0.58-0.76-0.82-1.27-3.43-2.53-6.86-3.75-10.31-0.9-2.53-1.7-5.1-2.6-7.63-1.11-3.12-2.29-6.21-3.38-9.34-0.21-0.6-0.52-0.78-1.09-0.78-3.24 0.01-6.49 0.02-9.73-0.01-0.61-0.01-0.85 0.28-1.02 0.76-1.32 3.58-2.64 7.17-3.95 10.75C5-12.64 3.35-8.13 1.7-3.61 1.38-2.71 1.13-1.78 0.8-0.88 0.68-0.54 0.42-0.26 0.22 0.04 0.15 0.03 0.07 0.01 0 0" id="path410" fill-rule="nonzero" fill="#dbdbda"/></g><g id="g412" transform="matrix(0.62725737,0,0,-0.62422145,45.329983,1027.12)" display="inline"><path d="m0 0c0-2.13 0.01-4.26 0-6.39 0-0.58 0.14-1.05 0.8-1.04 3.23 0.04 6.47-0.02 9.68 0.24 1.76 0.14 3.35 1.02 4.49 2.55 1.49 2.01 1.75 4.19 1.29 6.6C15.75 4.62 12.93 7.22 10.22 7.25 7.1 7.28 3.99 7.24 0.87 7.27 0.21 7.27-0.02 7.06-0.01 6.39 0.02 4.26 0 2.13 0 0m0-40.44-16.91 0 0 60.82c0.28 0.01 0.58 0.04 0.89 0.04 9.93 0 19.85 0.05 29.78-0.04 1.65-0.01 3.3-0.54 4.93-0.92 3.71-0.87 7.01-2.54 9.63-5.34 2.26-2.41 3.62-5.3 4.36-8.55 0.55-2.4 0.5-4.82 0.25-7.16-0.24-2.24-1.03-4.48-1.94-6.57-1.34-3.08-3.62-5.46-6.45-7.28-0.5-0.32-1.03-0.58-1.57-0.83-0.72-0.33-1.01-0.71-0.52-1.52 1.36-2.3 2.65-4.65 3.98-6.98 1.5-2.62 3-5.23 4.5-7.85 1.25-2.18 2.52-4.36 3.75-6.56 0.19-0.34 0.23-0.76 0.36-1.23l-18.55 0c-0.43 0.88-0.81 1.71-1.24 2.52-2.08 3.99-4.17 7.97-6.27 11.95-1.01 1.92-2.01 3.85-3.08 5.74-0.2 0.35-0.74 0.67-1.15 0.7-1.3 0.09-2.61 0.01-3.91 0.05C0.23-19.44 0.05-19.73 0.01-20.23-0.01-20.45 0-20.67 0-20.9c0-6.14 0-12.28 0-18.42l0-1.12z" id="path414" fill-rule="nonzero" fill="#dbdbda"/></g><g id="g416" transform="matrix(0.62725737,0,0,-0.62422145,116.48927,1014.3996)" display="inline"><path d="m0 0 45.17 0 0-1.07c0-3.53 0-7.06 0-10.59 0-1.27 0-1.27-1.23-1.27-8.46 0-16.92 0-25.38 0-0.29 0-0.58 0.04-0.86-0.02-0.61-0.13-1.01-0.37-0.99-1.18 0.06-2.96 0.05-5.92 0.01-8.87-0.01-0.83 0.29-1.01 1.06-1.01 7 0.02 14 0.01 20.99 0.01 0.55 0 1.1 0.04 1.63-0.06 0.17-0.03 0.36-0.46 0.37-0.72 0.04-1.21 0.02-2.42 0.02-3.63 0-2.45-0.01-4.9 0.01-7.35 0-0.7-0.07-1.16-1-0.88-0.44 0.13-0.98-0.14-1.47-0.14-6.23-0.01-12.47-0.01-18.7-0.01-0.65 0-1.3-0.04-1.94 0.01-0.66 0.05-0.94-0.23-0.94-0.85 0-3.12-0.01-6.23 0-9.35 0-0.61 0.21-0.78 0.93-0.75 1.86 0.07 3.72-0.08 5.58-0.11 1.16-0.02 2.33-0.01 3.49-0.01 5.73 0 11.45 0 17.18-0.01 0.52 0 1.04-0.11 1.55-0.17l0-12.72L0-60.76 0 0Z" id="path418" fill-rule="nonzero" fill="#dbdbda"/></g><g id="g420" transform="matrix(0.62725737,0,0,-0.62422145,10.729865,1027.1801)" display="inline"><path d="m0 0c0-2.03 0-4.07 0-6.1 0-1.24 0-1.24 1.3-1.25 2.48 0 4.96-0.01 7.44 0.01 0.62 0.01 1.25 0.08 1.86 0.19 2.3 0.44 4.12 1.59 5.23 3.7 0.86 1.64 0.96 3.33 0.65 5.2-0.58 3.45-3.38 5.35-6.26 5.55C7.11 7.52 3.99 7.34 0.87 7.36 0.21 7.37-0.02 7.15-0.01 6.48 0.02 4.32 0 2.16 0 0m0-40.32-17.11 0 0 60.84 1.08 0c9.99 0 19.97 0.03 29.95-0.03 1.39-0.01 2.82-0.23 4.14-0.65 2.11-0.67 4.26-1.38 6.19-2.43 3.07-1.68 5.34-4.2 6.98-7.37 2.05-3.95 2.32-8.17 1.9-12.39-0.45-4.51-2.2-8.65-5.48-11.92-2.12-2.12-4.66-3.65-7.58-4.55-2.75-0.85-5.54-1.2-8.41-1.13-2.61 0.06-5.21 0.01-7.82 0.01-0.93 0-1.85-0.02-2.78 0.01-0.79 0.03-1.1-0.24-1.09-1.09C0.02-27.1 0-33.18 0-39.25c0-0.34 0-0.68 0-1.07" id="path422" fill-rule="nonzero" fill="#dbdbda"/></g></g></svg>