<svg height="40" viewBox="0 0 40 40" width="40" xmlns="http://www.w3.org/2000/svg"><g fill="none" fill-rule="evenodd"><circle cx="20" cy="20" fill="#4d4c44" fill-opacity=".3" r="20"/><g fill="#fff"><path d="m20 1.29032258c10.3330695 0 18.7096774 8.37660791 18.7096774 18.70967742 0 10.3330695-8.3766079 18.7096774-18.7096774 18.7096774-10.33306951 0-18.70967742-8.3766079-18.70967742-18.7096774.01421499-10.32717574 8.38250168-18.69546243 18.70967742-18.70967742zm0-1.29032258c-11.045695 0-20 8.954305-20 20s8.954305 20 20 20 20-8.954305 20-20-8.954305-20-20-20z" fill-rule="nonzero"/><path d="m28.3333333 12.3611104v15.2777785c0 .1880798-.0659726.3508385-.197918.4882812-.131943.1374428-.2881923.2061632-.4687479.2061632h-5.3333348c-.1805556 0-.3368049-.0687204-.4687503-.2061632-.131943-.1374427-.1979156-.3002014-.1979156-.4882812v-15.2777785c0-.1880788.0659726-.3508385.1979156-.4882792.1319454-.137443.2881947-.2061645.4687503-.2061645h5.3333348c.1805556 0 .3368049.0687215.4687479.2061645.1319454.1374407.197918.3002004.197918.4882792zm-10 0v15.2777785c0 .1880798-.0659726.3508385-.197918.4882812-.131943.1374428-.2881923.2061632-.4687479.2061632h-5.3333341c-.1805566 0-.3368049-.0687204-.46875-.2061632-.1319451-.1374427-.1979166-.3002014-.1979166-.4882812v-15.2777785c0-.1880788.0659715-.3508385.1979166-.4882792.1319451-.137443.2881934-.2061645.46875-.2061645h5.3333341c.1805556 0 .3368049.0687215.4687479.2061645.1319454.1374407.197918.3002004.197918.4882792z"/></g></g></svg>