<svg height="40" viewBox="0 0 40 40" width="40" xmlns="http://www.w3.org/2000/svg"><g fill="none" fill-rule="evenodd"><circle cx="20" cy="20" fill="#4d4c44" fill-opacity=".3" r="20"/><g fill="#fff"><path d="m20 1.29032258c10.3330695 0 18.7096774 8.37660791 18.7096774 18.70967742 0 10.3330695-8.3766079 18.7096774-18.7096774 18.7096774-10.33306951 0-18.70967742-8.3766079-18.70967742-18.7096774.01421499-10.32717574 8.38250168-18.69546243 18.70967742-18.70967742zm0-1.29032258c-11.045695 0-20 8.954305-20 20s8.954305 20 20 20 20-8.954305 20-20-8.954305-20-20-20z" fill-rule="nonzero"/><path d="m29.7547964 20.3327538-14.1577815 7.9217075c-.1634691.0930287-.3038373.1037626-.4211087.0322021s-.1759062-.2003675-.1759062-.3864248v-15.8004779c0-.1860564.0586348-.3148637.1759062-.386424.1172714-.0715604.2576396-.060827.4211087.0322024l14.1577815 7.9217072c.1634699.093027.2452036.2039453.2452036.3327525 0 .1288096-.0817337.239728-.2452036.332755z"/></g></g></svg>