<svg id="Layer_1" data-name="Layer 1" xmlns="http://www.w3.org/2000/svg" viewBox="0 0 272 152"><defs><style>.cls-1{fill:#fff}</style></defs><title>logo_lu_footer</title><path class="cls-1" d="M0,151.05a1.75,1.75,0,0,0,1.84-1.76V135.15a2.21,2.21,0,0,0-1.76-2.37v-.62c1.07,0,2.1.12,3.16.12s2.12-.12,3.19-.12v.62c-1.15.31-1.51,1-1.51,2.46,0,.84-.09,2.62-.09,5.14V150a14.23,14.23,0,0,0,3,.17c4.81,0,5.68-.86,6.37-2.65l1,.5L14,152a7.66,7.66,0,0,0-2.68-.45H2.12c-.7,0-1.42.12-2.12.12Z"/><path class="cls-1" d="M17.7,136c.81,0,1.61.09,2.44.09s1.63-.09,2.44-.09v.49c-1,.14-1.25.81-1.25,2.24,0,2.12,0,4.24,0,6.37,0,3,1.39,5.12,4.72,5.12,1.81,0,4.11-1,4.11-3.58V144c0-2.64-.2-5.27-.2-6.39a1.25,1.25,0,0,0-1.14-1.12V136c.81,0,1.61.09,2.42.09s1.63-.09,2.43-.09v.49c-.74,0-1,.9-1,1.66s-.07,3.17-.07,6.12v4.87c0,1.26.25,1.9,1.23,2v.49c-.62,0-1.27-.09-1.9-.09s-1.25.09-1.87.09c0-.76.11-1.45.15-2.12-1.63,1.52-3,2.39-5.29,2.39-3.31,0-5.93-1.9-5.93-5.25v-3.73c0-1.75-.11-3.29-.11-4.68,0-.87-.16-1.58-1.1-1.72Z"/><path class="cls-1" d="M38.34,151.15c.87-.22,1.38-.89,1.38-2.15l.07-13.23h.94l10.93,12v-7.69c0-2.77-.61-3.42-1.68-3.58V136c.74,0,1.48.09,2.21.09s1.5-.09,2.24-.09v.49c-1,.18-1.48,1-1.48,2.77l-.06,12.61h-.76L41,139.82l.09,8.51c0,1.75.56,2.55,1.63,2.82v.49c-.74,0-1.48-.09-2.21-.09s-1.46.09-2.19.09Z"/><path class="cls-1" d="M62.65,150.57a22.22,22.22,0,0,0,2.78.18c4.27,0,6.41-2.62,6.41-6.91a6.58,6.58,0,0,0-6.77-6.91c-.72,0-1.41,0-2.3.09,0,2-.12,3.76-.12,5.64Zm-3.55.58c.92-.22,1.16-.62,1.16-1.59v-6.5c0-2-.22-3.71-.22-4.81a1.64,1.64,0,0,0-1.16-1.81V136c1,0,2.08.09,3.13.09s2.07-.09,3.13-.09c6.1,0,9.81,2.68,9.81,7.71s-2.91,7.89-9.19,7.89c-1.12,0-2.23-.09-3.33-.09s-2.21.09-3.33.09Z"/><path class="cls-1" d="M79.31,148.6h.85A3.53,3.53,0,0,0,83.82,151a2.9,2.9,0,0,0,2.91-2.79c0-4.72-7.62-1.81-7.62-7.87,0-2.88,2.52-4.54,5.16-4.54a8.67,8.67,0,0,1,4,1l.22,2.39h-.8a3.54,3.54,0,0,0-3.38-2.48,2.84,2.84,0,0,0-3,2.84c0,3.93,7.63,1.65,7.63,7.49a4.91,4.91,0,0,1-5.23,4.87,9.44,9.44,0,0,1-4.36-.87Z"/><path class="cls-1" d="M102.08,136c.8,0,1.61.09,2.44.09s1.63-.09,2.43-.09v.49c-1,.14-1.25.81-1.25,2.24,0,2.12,0,4.24,0,6.37,0,3,1.39,5.12,4.72,5.12,1.81,0,4.11-1,4.11-3.58V144c0-2.64-.2-5.27-.2-6.39a1.26,1.26,0,0,0-1.14-1.12V136c.8,0,1.61.09,2.41.09s1.63-.09,2.44-.09v.49c-.74,0-1,.9-1,1.66s-.07,3.17-.07,6.12v4.87c0,1.26.25,1.9,1.23,2v.49c-.63,0-1.27-.09-1.9-.09s-1.25.09-1.88.09c.05-.76.11-1.45.16-2.12a7.13,7.13,0,0,1-5.3,2.39c-3.31,0-5.92-1.9-5.92-5.25v-3.73c0-1.75-.11-3.29-.11-4.68,0-.87-.16-1.58-1.1-1.72Z"/><path class="cls-1" d="M122.71,151.15c.87-.22,1.39-.89,1.39-2.15l.07-13.23h.94l10.92,12v-7.69c0-2.77-.6-3.42-1.67-3.58V136c.74,0,1.47.09,2.21.09s1.5-.09,2.24-.09v.49c-1,.18-1.48,1-1.48,2.77l-.07,12.61h-.76l-11.11-12.09.09,8.51c0,1.75.56,2.55,1.64,2.82v.49c-.74,0-1.48-.09-2.22-.09s-1.45.09-2.19.09Z"/><path class="cls-1" d="M148.37,136.53c-.82.14-.91.72-.91,1.5,0,2.17-.09,4.81-.09,7.18v4.33c0,.74.24,1.59,1.09,1.61v.49c-.76,0-1.54-.09-2.3-.09s-1.54.09-2.3.09v-.49c.71,0,1.11-.65,1.11-1.61v-3.22c0-2.68-.2-6.61-.2-8,0-.92-.09-1.65-1-1.77V136c.76,0,1.52.09,2.3.09s1.54-.09,2.3-.09Z"/><path class="cls-1" d="M159.53,151.91l-6.17-13.57a3.31,3.31,0,0,0-1.61-1.81V136c.85,0,1.69.09,2.54.09s1.68-.09,2.53-.09v.49c-.42.09-.83.29-.83.81a4,4,0,0,0,.41,1.38l4.09,9.77,3.48-9.12a4.05,4.05,0,0,0,.32-1.47c0-.88-.3-1.23-1.17-1.37V136c.76,0,1.52.09,2.28.09s1.52-.09,2.28-.09v.49c-.91.14-1.43.9-1.87,2l-5.3,13.37Z"/><path class="cls-1" d="M170.75,151.06A1.29,1.29,0,0,0,172,149.7v-3.78c0-3-.18-6.24-.18-8.22,0-.56-.42-.94-1.11-1.08v-.49h8.83a6.07,6.07,0,0,0,1.76-.36c0,.58-.09,1.12-.09,1.68s.09,1.09.09,1.65h-.85c-.38-1.07-.91-1.9-2.14-1.9h-3.91v6h3.37c1.3,0,1.72-.11,2.26-1.21h.71c0,.65-.09,1.3-.09,1.95s.09,1.32.09,2H180c-.49-1.54-.91-1.63-2.21-1.63h-3.37v6.26h3.79a3.19,3.19,0,0,0,3.27-1.68l.69.36-.78,2.75a5.7,5.7,0,0,0-2.1-.36h-8.56Z"/><path class="cls-1" d="M190.51,144.18c.33,0,.6.06.87.06a3.58,3.58,0,0,0,3.82-3.5c0-2.06-.94-3.89-3.37-3.89-.59,0-1.21.06-1.21.62Zm-3.51,7c.76-.18,1.12-.54,1.12-1.29v-5.75c0-1.92-.11-3.84-.11-5.74,0-1.05-.12-1.61-1.26-1.84V136c.72,0,1.46.09,2.17.09s1.34-.09,3-.09c4,0,6,2,6,4.43,0,2.25-2.06,3.71-4.05,4.2l4.52,5.23a3.79,3.79,0,0,0,1.7,1.25v.49c-.74,0-1.5-.09-2.24-.09s-1.47.09-2.21.09v-.49c.15,0,.22-.11.24-.27a1,1,0,0,0-.33-.71l-3.71-4.34c-.34-.38-.81-1-1.34-1v4.43c0,.93.11,1.6,1.25,1.85v.49c-.8,0-1.59-.09-2.39-.09s-1.57.09-2.37.09Z"/><path class="cls-1" d="M203.38,148.6h.85A3.54,3.54,0,0,0,207.9,151a2.89,2.89,0,0,0,2.9-2.79c0-4.72-7.62-1.81-7.62-7.87,0-2.88,2.53-4.54,5.16-4.54a8.6,8.6,0,0,1,4,1l.23,2.39h-.81a3.53,3.53,0,0,0-3.37-2.48,2.83,2.83,0,0,0-3,2.84c0,3.93,7.62,1.65,7.62,7.49a4.91,4.91,0,0,1-5.23,4.87,9.44,9.44,0,0,1-4.36-.87Z"/><path class="cls-1" d="M222.78,136.53c-.82.14-.91.72-.91,1.5,0,2.17-.09,4.81-.09,7.18v4.33c0,.74.24,1.59,1.09,1.61v.49c-.76,0-1.54-.09-2.3-.09s-1.54.09-2.3.09v-.49c.71,0,1.12-.65,1.12-1.61v-3.22c0-2.68-.21-6.61-.21-8,0-.92-.09-1.65-1-1.77V136c.76,0,1.52.09,2.3.09s1.54-.09,2.3-.09Z"/><path class="cls-1" d="M240.57,138.92h-.84c-.23-1.31-.9-1.72-2.17-1.72h-2.82c0,1.93-.11,4.38-.11,7.07V149c0,1.38.42,1.81,1.41,2.12v.49c-.87,0-1.72-.09-2.57-.09s-1.7.09-2.57.09v-.49c1-.33,1.34-.83,1.34-2.12v-3.51c0-3.22-.18-6.39-.23-8.32h-3c-1.28,0-1.95.41-2.17,1.72H226v-3.15a9.93,9.93,0,0,0,2.59.36h9.88a6.29,6.29,0,0,0,2.12-.36Z"/><path class="cls-1" d="M243.43,151.06a1.29,1.29,0,0,0,1.3-1.36v-3.78c0-3-.18-6.24-.18-8.22,0-.56-.42-.94-1.12-1.08v-.49h8.83a6.07,6.07,0,0,0,1.77-.36c0,.58-.09,1.12-.09,1.68s.09,1.09.09,1.65h-.85c-.38-1.07-.92-1.9-2.15-1.9h-3.91v6h3.38c1.29,0,1.72-.11,2.25-1.21h.72c0,.65-.09,1.3-.09,1.95s.09,1.32.09,2h-.76c-.49-1.54-.92-1.63-2.21-1.63h-3.38v6.26h3.8a3.19,3.19,0,0,0,3.27-1.68l.69.36-.78,2.75a5.7,5.7,0,0,0-2.1-.36h-8.57Z"/><path class="cls-1" d="M272.29,138.92h-.85c-.22-1.31-.89-1.72-2.17-1.72h-2.81c0,1.93-.11,4.38-.11,7.07V149c0,1.38.42,1.81,1.4,2.12v.49c-.87,0-1.72-.09-2.57-.09s-1.69.09-2.57.09v-.49c1-.33,1.34-.83,1.34-2.12v-3.51c0-3.22-.17-6.39-.22-8.32h-3c-1.27,0-1.94.41-2.16,1.72h-.85v-3.15a9.93,9.93,0,0,0,2.59.36h9.88a6.29,6.29,0,0,0,2.12-.36Z"/><path class="cls-1" d="M50.31,93.16v4.66c0,.24,1.06.64,1.06.64H48s1-.4,1-.61V93.92l-1,.18v-.19Z"/><path class="cls-1" d="M70,95.66a1.61,1.61,0,0,0-.85.27,4.47,4.47,0,0,0-.06.8c0,.57.07,1.54.89,1.54s.81-.75.81-1.34,0-1.27-.79-1.27m1.72-2.4a3,3,0,0,0-2.48,2.29,2.18,2.18,0,0,1,1.1-.29,1.62,1.62,0,0,1,1.82,1.57c0,1-.88,1.74-2.13,1.74a2.12,2.12,0,0,1-2.31-2.16c0-1.62,1.58-3.25,4-3.25Z"/><path class="cls-1" d="M63,95.66a1.61,1.61,0,0,0-.85.27,4.47,4.47,0,0,0-.06.8c0,.57.07,1.54.89,1.54s.81-.75.81-1.34,0-1.27-.79-1.27m1.72-2.4a3,3,0,0,0-2.48,2.29,2.18,2.18,0,0,1,1.1-.29,1.62,1.62,0,0,1,1.82,1.57c0,1-.88,1.74-2.13,1.74a2.12,2.12,0,0,1-2.31-2.16c0-1.62,1.58-3.25,4-3.25Z"/><path class="cls-1" d="M55.91,95.66a1.64,1.64,0,0,0-.85.27,4.47,4.47,0,0,0-.06.8c0,.57.07,1.54.89,1.54s.81-.75.81-1.34,0-1.27-.79-1.27m1.72-2.4a3,3,0,0,0-2.48,2.29,2.18,2.18,0,0,1,1.1-.29,1.62,1.62,0,0,1,1.82,1.57c0,1-.88,1.74-2.13,1.74a2.12,2.12,0,0,1-2.31-2.16c0-1.62,1.58-3.25,4-3.25Z"/><path class="cls-1" d="M11.51,48.55a8.31,8.31,0,0,1,1.66.83,2.35,2.35,0,0,0-.16.56c-.07.45,0,1-.1,1.69a3.32,3.32,0,0,1-3.69,3,3.46,3.46,0,0,1-2.55-4.21,6.3,6.3,0,0,1,.7-1.78,4.36,4.36,0,0,0,0-.45l1.7.19s-1.72,1.12-1.87,2.05a2.37,2.37,0,0,0,2.18,2.75,2.61,2.61,0,0,0,3.15-2c.15-.88-1-2.63-1-2.63"/><path class="cls-1" d="M27.38,23.37l-3.63,3.77s.24-1.13-.1-1.46L20.83,23c-.41-.4-1.44-.06-1.44-.06l2.3-2.39s-.27,1.15.06,1.47l2.9,2.79c.26.25.4.23.66,0l.87-.9c.45-.47.47-2.17.47-2.17Z"/><path class="cls-1" d="M24.42,17.88l2.42-1.95s-.33,1,0,1.43l2.43,3c.3.37,1.4.28,1.4.28l-2.42,2s.27-1,0-1.35l-2.46-3c-.31-.39-1.36-.33-1.36-.33"/><path class="cls-1" d="M32.55,17.89c.31.5,1.43.49,1.43.49l-2,1.23s.37-.92.16-1.26l-2.34-3.83c-.26,0-1-.1-1-.1l1.72-1.05,5.57,1.47-1.54-2.52c-.37-.59-1.51-.49-1.51-.49l2.15-1.32s-.5.9-.31,1.22l2.73,4.46-.46.28-6.54-1.73Z"/><path class="cls-1" d="M68,9.58s.95,1.7,1.7,1.86a1,1,0,0,0,1.31-.71c.3-1.42-2.78-2-2.37-3.91a1.73,1.73,0,0,1,2.26-1.15,6.77,6.77,0,0,1,1.4.56.35.35,0,0,0,.24-.06l.2,0-.15,1.58S71.7,6.26,71,6.1c-.53-.11-1,.09-1.07.46-.19.88,1.36,1.38,2.21,2.68a1.76,1.76,0,0,1,.27,1.38A1.94,1.94,0,0,1,70,12a7.84,7.84,0,0,1-1.57-.65.23.23,0,0,0-.23.11l-.25-.05Z"/><path class="cls-1" d="M75.9,7.15l2.95,1s-1.06.28-1.22.76l-1.24,3.67c-.15.45.51,1.32.51,1.32l-2.94-1s1-.32,1.14-.73l1.25-3.7c.17-.48-.45-1.33-.45-1.33"/><path class="cls-1" d="M84.83,15.47l-.65,1.3a6.69,6.69,0,0,1-2.56-.6c-2.2-1.11-2.64-2.88-1.8-4.55s2.72-2.11,4.57-1.17a12.69,12.69,0,0,1,1.74,1.26.34.34,0,0,0,.32,0l.22.11-.81,1.59-.35-.17a2,2,0,0,0-1.09-2.33,2.42,2.42,0,0,0-3.3,1.34A2.53,2.53,0,0,0,82,15.82a2.24,2.24,0,0,0,1,.25l.61-1.2c.22-.44-.63-1.43-.63-1.43l2.9,1.46s-.86.17-1.07.57"/><path class="cls-1" d="M89.35,13.53l2.54,1.78s-1.09,0-1.38.39L88.3,18.87c-.27.4.12,1.42.12,1.42l-2.55-1.78s1.06,0,1.3-.38l2.24-3.2c.29-.42-.06-1.4-.06-1.4"/><path class="cls-1" d="M98.45,30.54l-3.29-4.07s1.09.38,1.46.08l3-2.46c.45-.36.24-1.42.24-1.42L102,25.24s-1.1-.4-1.46-.11l-3.13,2.53c-.28.22-.28.36,0,.66l.78,1c.41.51,2.09.75,2.09.75Z"/><path class="cls-1" d="M94.11,25.29l-3.85-3.55s1.13.21,1.45-.14l2.65-2.87c.39-.42,0-1.45,0-1.45l2.44,2.25s-1.15-.24-1.46.1l-2.73,3c-.24.26-.23.4,0,.66l.92.84c.48.44,2.18.43,2.18.43Z"/><path class="cls-1" d="M103.58,29.31a3.41,3.41,0,0,0,.48-1.55l1.74,2.91s-1.14-.62-1.49-.09l-1.93,2.87,3.7-.31c.35,0,.41-1.31.41-1.31L107.76,34a4.32,4.32,0,0,0-1.82-.29l-5.72.48Z"/><path class="cls-1" d="M107.77,37.22v0l-3.34,1c-.62.18-1,1.21-1,1.21l-.73-2a2.24,2.24,0,0,0,1.61.3l3.4-1c.48-.14.84-1,.84-1l.69,1.94L106,40.78l4.48.33.7,2a1.35,1.35,0,0,0-1.29-.28l-3.31,1.43a2,2,0,0,0-1,1.27l-1-2.9s.67.74,1.27.52l.42-.17,3.19-1.38v0l-5.39-.4-.07-.22Z"/><path class="cls-1" d="M108.39,59c-.59,0-1.21.92-1.21.92l.1-2.36s.56.82,1,.84l4.48.19c.16-.21.63-.76.63-.76l-.08,2L109,63.68l2.94.12c.71,0,1.26-1,1.26-1L113,65.34s-.47-.91-.84-.93L107,64.19l0-.53,5.08-4.47Z"/><path class="cls-1" d="M112.6,67.32l-.6,3.05s-.42-1-.92-1.11l-3.79-.75c-.47-.1-1.25.67-1.25.67l.61-3s.44,1,.86,1l3.84.76c.49.1,1.25-.62,1.25-.62"/><path class="cls-1" d="M106.3,83.78l1-1.9-2-1-.73,1.41a2,2,0,0,0,.12,1.32L103,82.72a1.78,1.78,0,0,0,1.2-.81l.66-1.28-1.57-.8c-.37-.19-.49-.16-.62.09l-.74,1.45c-.29.56.21,1.78.21,1.78l-1.31-.8,2.68-5.23s0,1.31.43,1.53l3.47,1.77c.47.24,1.41-.34,1.41-.34l-2.46,4.79-1.3-.56s1-.13,1.26-.53"/><path class="cls-1" d="M96.22,91.5s-2-.12-2.49.43a1,1,0,0,0-.11,1.48c1,1,3.2-1.24,4.58.12a1.75,1.75,0,0,1-.26,2.53,6.73,6.73,0,0,1-1.23.87,3.48,3.48,0,0,0-.22.38l-1.25-1s1.79,0,2.32-.49.47-.89.2-1.16c-.64-.63-1.9.41-3.45.42A1.75,1.75,0,0,1,93,94.59a2,2,0,0,1,.17-2.76,8.31,8.31,0,0,1,1.4-1,.22.22,0,0,0,0-.25l.18-.19Z"/><path class="cls-1" d="M94.17,99.32l-2.45,1.92s.34-1,0-1.44l-2.38-3c-.3-.37-1.39-.3-1.39-.3l2.44-1.91s-.28,1,0,1.35L92.81,99c.31.4,1.36.35,1.36.35"/><path class="cls-1" d="M67.43,111.32l-3.09.32s.84-.69.79-1.2l-.39-3.85c0-.47-1-1-1-1l3.09-.32s-.78.71-.74,1.14l.4,3.88c0,.51,1,1,1,1"/><path class="cls-1" d="M61.28,107.43s-1.26-1.48-2-1.49a1,1,0,0,0-1.15.94c0,1.45,3.12,1.45,3.09,3.38,0,.94-.84,1.58-2,1.57a6.53,6.53,0,0,1-1.48-.28,4,4,0,0,0-.43.1l-.16-1.58s1.21,1.32,2,1.34c.55,0,1-.29,1-.67,0-.89-1.61-1.08-2.69-2.19a1.79,1.79,0,0,1-.54-1.3,2,2,0,0,1,2.11-1.79,9,9,0,0,1,1.67.34,3.11,3.11,0,0,0,.46-.15Z"/><path class="cls-1" d="M44.31,105.24l.38-1.41a6.82,6.82,0,0,1,2.62.08c2.39.65,3.17,2.29,2.68,4.1s-2.24,2.61-4.25,2.06a12.6,12.6,0,0,1-2-.89,2.6,2.6,0,0,0-.55,0l.47-1.73s.93,1.9,1.91,2.16a2.39,2.39,0,0,0,3-2A2.53,2.53,0,0,0,47,104.32a2.21,2.21,0,0,0-1.08,0l-.35,1.3c-.21.85.9,1.27.9,1.27L43.38,106s.81-.34.93-.77"/><path class="cls-1" d="M25.06,92.35l-1.2,1.26,2.33,2.22,1.22-1.27c.35-.37.12-1.43.12-1.43l2.26,2.17s-1.06-.18-1.39.18l-2.69,2.81c-.33.35-.11,1.4-.11,1.4l-2.27-2.16s1,.23,1.41-.17l1.06-1.11L23.46,94l-1,1.08c-.38.4-.15,1.42-.15,1.42L20,94.37s1.05.21,1.41-.17l2.67-2.79c.35-.37.11-1.44.11-1.44l2.26,2.16s-1-.16-1.41.22"/><path class="cls-1" d="M8.28,68.16v0l3.48-.24c.64,0,1.23-1,1.23-1l.28,2.14a2.25,2.25,0,0,0-1.51-.63l-3.53.25c-.5,0-1,.8-1,.8l-.27-2,3.81-2.42-4.3-1.28L6.16,61.7a1.37,1.37,0,0,0,1.21.55l3.54-.7a2,2,0,0,0,1.22-1l.41,3s-.5-.86-1.13-.78l-.45.08-3.41.68v0l5.19,1.52,0,.23Z"/><path class="cls-1" d="M111.66,50.67a3.37,3.37,0,0,0,1.1-1.18l.3,3.37s-.75-1-1.3-.72l-2.65,1.52,3.21,1.46c.35.11.86-.92.86-.92l.23,2.47a4.27,4.27,0,0,0-1.52-1.05l-5-2.2Z"/><path class="cls-1" d="M110.16,72.68a3.37,3.37,0,0,0,1.47-.68l-1,3.24s-.3-1.26-.93-1.16l-3,.4,2.42,2.58c.28.22,1.14-.53,1.14-.53l-.73,2.37a4.19,4.19,0,0,0-1-1.55l-3.81-3.94Z"/><path class="cls-1" d="M10.56,76.57A3.35,3.35,0,0,0,9.77,78l-1.1-3.21s1,.84,1.44.4l2.21-2.12-3.47-.65c-.36,0-.62,1.1-.62,1.1l-.8-2.35a4.1,4.1,0,0,0,1.72.66l5.4,1Z"/><path class="cls-1" d="M32.09,98.05c.29-.42-.26-1.53-.26-1.53l2.89,2s-1.23-.13-1.52.3l-2.71,3.94,1,.65c.62.43,1.85-.12,1.85-.12l-1,1.21L27.18,101l.72-1.4s-.08,1.35.54,1.77l.95.66Z"/><path class="cls-1" d="M70.59,105.57c-.12-.49-1.31-.84-1.31-.84l3.43-.8s-.92.83-.81,1.33L73,109.77l1.12-.27c.74-.17,1.16-1.45,1.16-1.45l.22,1.55-6,1.42-.56-1.48s1,1,1.68.79l1.12-.26Z"/><path class="cls-1" d="M84,100.3c-.25-.44-1.49-.42-1.49-.42l3-1.77s-.64,1.06-.38,1.51l2.42,4.12,1-.58c.65-.38.68-1.73.68-1.73l.66,1.42L84.6,106l-1-1.25s1.19.65,1.84.27l1-.58Z"/><path class="cls-1" d="M108.31,47.76a1,1,0,1,1,1,1,.95.95,0,0,1-1-1"/><path class="cls-1" d="M52.44,108.08a1,1,0,0,1,1.92,0,1,1,0,1,1-1.92,0"/><path class="cls-1" d="M8.38,58a1,1,0,0,1,1-1,1,1,0,1,1-1,1"/><path class="cls-1" d="M16.5,32c1.33,1,3.26.75,4.58-1.07A3.37,3.37,0,0,0,20.57,26,3.18,3.18,0,0,0,16,27c-1.28,1.76-1.08,3.84.49,5M17,30.57c-1.19-.87-1.49-2.09-.76-3.09.87-1.2,2.52-1,3.79-.05,1.09.79,1.67,2,.87,3.09s-2.39,1.14-3.9.05"/><path class="cls-1" d="M43.17,11l1.72-.65a3.06,3.06,0,0,1,1.66,0L45.2,8.85s-.09.85-.59,1l-1.8.73L41.23,8.68l2.6-.87A3.37,3.37,0,0,1,45.3,8L44.18,7l-5.53,1.9s.7.18.58,1.13l-.08,4.16a4.54,4.54,0,0,1-.53,1.48l2.1-.79s-.91-.38-.85-.85l.1-1.19,2.31-.7,1.3,1.59,5.12-2-1.09-1.19s.38.88-.21,1.1l-2.72,1.06ZM42,11.79l-1.93.6.09-2.83Z"/><path class="cls-1" d="M14,37.24l.16-.35c.5-1.07.46-1.84-.49-2.28s-1.61.12-2,1l-.21.46Zm1.72.8c.45.21,1.44-.5,1.44-.5L15.7,40.63s-.06-1.13-.57-1.37l-3.5-1.63c-.42-.19-1.43.43-1.43.43.18-.46.32-.81.46-1.18s.46-1.16.61-1.48c.61-1.3,1.11-1.93,1.75-2.17a1.49,1.49,0,0,1,1.21.05,1.69,1.69,0,0,1,.82,2c.76-.36,1.6-.34,2.52-.68A9.48,9.48,0,0,0,19,33.81l-.24.55c-.51,1.1-.89,1.47-1.5,1.7s-1.81.31-2.56.65l-.33.7Z"/><path class="cls-1" d="M10.15,43.85l1.67,1.37.51-1.7Zm2,1.69.83.68c.37.3,1.2-.62,1.2-.62l-.76,2.57a3.2,3.2,0,0,0-.75-1.41L8,42.81l6.15-1a3.56,3.56,0,0,0,1.33-.66l-.93,3.15s-.24-1.18-.69-1.1l-1.08.18Z"/><path class="cls-1" d="M15.05,81.58l-.17-.34c-.56-1-1.2-1.48-2.12-1s-.87,1.36-.43,2.2l.24.45Zm1.65-.83c.44-.23.46-1.45.46-1.45l1.61,3s-.94-.64-1.44-.38l-3.41,1.81c-.41.22-.53,1.4-.53,1.4-.25-.42-.44-.73-.66-1.07s-.64-1.08-.81-1.39c-.67-1.27-.88-2-.68-2.7a1.55,1.55,0,0,1,.77-.94,1.69,1.69,0,0,1,2.07.54c.17-.82.69-1.48,1-2.42a10.37,10.37,0,0,0,.24-1.59l.29.53a2.67,2.67,0,0,1,.46,2.21c-.21.66-.85,1.64-1,2.45l.36.68Z"/><path class="cls-1" d="M21,86.23c-.8-1.09-2.12-.9-3.21-.1-1.26.93-2,2.43-1.09,3.63.74,1,2,1.08,3.18.2,1.5-1.11,1.94-2.62,1.12-3.73m-4.77,3.59a3.17,3.17,0,0,1,.42-4.65,3.36,3.36,0,0,1,4.83,1c1.33,1.81,1,3.71-.36,4.69-1.55,1.15-3.6.72-4.89-1"/><path class="cls-1" d="M39.6,101.51c-1.23-.57-2.3.23-2.87,1.45-.66,1.43-.57,3.09.78,3.71,1.12.52,2.26,0,2.88-1.34.79-1.69.46-3.23-.79-3.82M37.12,107c-1.86-.86-2.63-2.63-1.86-4.28A3.36,3.36,0,0,1,40,101.23c2,.94,2.62,2.8,1.93,4.29A3.42,3.42,0,0,1,37.12,107"/><path class="cls-1" d="M100.87,87.49l-.23.31c-.71.94-.83,1.71,0,2.33s1.6.21,2.17-.54l.31-.41Zm-1.49-1.16c-.4-.3-1.52.19-1.52.19l2.06-2.73s-.19,1.12.27,1.46l3.08,2.31c.38.28,1.49-.11,1.49-.11l-.69,1c-.3.46-.69,1-.91,1.32-.86,1.15-1.47,1.67-2.16,1.76a1.5,1.5,0,0,1-1.17-.29,1.69,1.69,0,0,1-.39-2.1c-.82.2-1.64,0-2.61.15a10,10,0,0,0-1.54.45l.36-.49c.72-1,1.16-1.26,1.8-1.35s1.85.06,2.65-.12l.47-.61Z"/><path class="cls-1" d="M79.68,106l0-2.16-1.65.65Zm.1-2.6,0-1.08c0-.47-1.23-.55-1.23-.55l2.49-1a3.24,3.24,0,0,0-.65,1.46l-.23,6.11-4.54-4.24a3.59,3.59,0,0,0-1.35-.65l3-1.21s-.77.92-.43,1.23l.81.74Z"/><path class="cls-1" d="M60.42,18.68a3.39,3.39,0,0,0-1-1.24l3.28.23s-1.12.56-.9,1.13l1.06,2.78,1.9-2.86c.15-.31-.76-1-.76-1l2.41.16a3.93,3.93,0,0,0-1.24,1.29l-2.88,4.47Z"/><path class="cls-1" d="M33.45,28.71a3.29,3.29,0,0,0-1.55-.26l2.58-2s-.45,1.17.11,1.45l2.64,1.34-.51-3.39c-.1-.34-1.21-.21-1.21-.21l1.89-1.49a4,4,0,0,0,0,1.79l.87,5.24Z"/><path class="cls-1" d="M84.07,26.91a3.27,3.27,0,0,0,0-1.57l2.44,2.21s-1.23-.26-1.41.33l-.92,3,3.29-1.23c.31-.15,0-1.22,0-1.22L89.27,30a4.12,4.12,0,0,0-1.77.25l-5,1.72Z"/><path class="cls-1" d="M43.82,26.29c.21.45,1.41.53,1.41.53l-3.09,1.45s.7-1,.49-1.42l-2-4.19-1,.47c-.66.31-.81,1.61-.81,1.61l-.52-1.43,5.46-2.56L44.59,22s-1.09-.73-1.75-.42l-1,.48Z"/><path class="cls-1" d="M68.61,19.7h0l-1.17,3.17c-.22.59.36,1.48.36,1.48l-2-.61a2.21,2.21,0,0,0,1.17-1.08l1.19-3.23c.17-.45-.29-1.23-.29-1.23l1.91.58.62,4.35,2.85-3.3,2,.59a1.33,1.33,0,0,0-1,.85l-.79,3.41a1.91,1.91,0,0,0,.42,1.5L71,25.31s1-.09,1.14-.69c0-.14.08-.29.11-.43L73,20.91h0l-3.42,4-.21-.06Z"/><path class="cls-1" d="M92,34.13l-1.27-1.64L89,33.81,90,35c.32.41,1.21.44,1.21.44l-1.49,1.16a1.73,1.73,0,0,0-.22-1.39l-.86-1.1-1.34,1c-.33.25-.34.36-.18.58l1,1.25c.38.48,1.65.55,1.65.55l-1.24.82L85,33.88s1.16.53,1.52.24l3-2.33c.4-.31.27-1.37.27-1.37L93,34.54l-1,.92s.31-1,0-1.33"/><path class="cls-1" d="M54.78,20.9l.37,0c1.14-.12,1.76-.54,1.66-1.55S55.9,18,55,18.14l-.5.05Zm.15,1.83c.06.48,1.14.95,1.14.95l-3.3.34s.92-.61.86-1.16l-.39-3.72c0-.46-1.06-1-1.06-1l1.21-.2c.52-.09,1.2-.19,1.54-.23,1.38-.14,2.16,0,2.68.38a1.47,1.47,0,0,1,.56,1,1.63,1.63,0,0,1-1.23,1.66c.67.46,1.08,1.17,1.82,1.77a10.1,10.1,0,0,0,1.34.79l-.58.07c-1.17.12-1.67,0-2.16-.39s-1.17-1.36-1.83-1.81l-.74.07Z"/><path class="cls-1" d="M29.86,38.31c.52.37.65.34,1.07-.26a2.42,2.42,0,0,0-.57-3.68,2.74,2.74,0,0,0-2-.54,2.72,2.72,0,0,0-1.75,1.3,4.81,4.81,0,0,0-.39.63Zm-5.18-1c.27-.44.59-.93.82-1.29s.44-.71.71-1.09C27.3,33.41,28,32.81,29,32.65a2.76,2.76,0,0,1,2.08.49,3,3,0,0,1,1.23,2c.12.67.06,1.59-1.06,3.18L29.5,40.74s.1-1-.34-1.32l-3-2.11c-.55-.39-1.49,0-1.49,0"/><path class="cls-1" d="M23.61,43.58l1.47,1.48.66-1.59Zm1.74,1.82.73.75c.33.32,1.22-.48,1.22-.48l-1,2.4a3.07,3.07,0,0,0-.58-1.43l-4.11-4.29,6-.31a3.61,3.61,0,0,0,1.36-.5l-1.22,2.94s-.11-1.16-.56-1.13l-1.06.07Z"/><path class="cls-1" d="M77.67,27.89c1.15.63,2.24-.07,2.87-1.22.73-1.34.75-3-.52-3.65-1-.57-2.19-.14-2.88,1.12-.87,1.59-.65,3.11.53,3.75m2.75-5.11a3.08,3.08,0,0,1,1.52,4.27,3.26,3.26,0,0,1-4.66,1.09c-1.91-1.05-2.36-2.88-1.6-4.28a3.33,3.33,0,0,1,4.74-1.08"/><path class="cls-1" d="M80.59,32.51c-2-1.63-1.33-1.39-1.87-3.12s-.17-4.18-.56-4.45.86-.38,1.29,3.33,1.14,4.24,1.14,4.24"/><path class="cls-1" d="M31,107.35a53.84,53.84,0,1,1,.33.2l-.92-.5-.65.94.93.61a59.92,59.92,0,1,0-.33-.2l.7.36.56-1Z"/><path class="cls-1" d="M37,95.26A43.5,43.5,0,0,1,49,16.11l.34-1A44.38,44.38,0,0,0,36.57,96l.67.37.41-.71Z"/><path class="cls-1" d="M37,96.25a44.38,44.38,0,1,0,22.88-82.4,44.6,44.6,0,0,0-8.31.78l-.14.93a43.47,43.47,0,1,1-14,79.83L36.71,95,36,95.6Z"/><path class="cls-1" d="M59.41,10.47a2.61,2.61,0,0,1-2-1.13"/><path class="cls-1" d="M60.06,6.91l1.48-1.43a2.53,2.53,0,0,1,.74,1,2.4,2.4,0,0,1,.22,1.13l-2.06.17,1.85,1a2.51,2.51,0,0,1-.69,1,2.47,2.47,0,0,1-1,.56l-.82-1.91-.36,2.1a2.61,2.61,0,0,1-2-1.13L59,7.92l-2,.32a2.59,2.59,0,0,1,0-1.21,2.42,2.42,0,0,1,.49-1l1.73,1-.91-1.73A2.56,2.56,0,0,1,60.53,5Z"/><path class="cls-1" d="M81.23,46.2a1.28,1.28,0,0,1-1.06-.81.76.76,0,0,1,.28-.78l0,.06,0,.06v0c.09.06.22,0,.34,0s.32-.12.31-.36a.41.41,0,0,0-.49-.4,1,1,0,0,1-.79,0c-.07,0-.08-.27,0-.46s.12-.34.12-.4-.22-.29-.4-.28a.35.35,0,0,0-.35.33c0,.24.16.33.27.45a.32.32,0,0,1,0,.42,2.07,2.07,0,0,1-.5.22v0H79c-.27,0-.45.14-.44.39A.38.38,0,0,0,79,45a.52.52,0,0,0,.41-.23.86.86,0,0,1,.34.69c0,.38-.08.69-.8.91a1,1,0,0,1-1-.17.67.67,0,0,1-.7.45c-.81-.09-1-1.06-1-1.06a.58.58,0,0,0,.51-.43c.14-.36-.1-.59-.5-.64-.24,0-.54.33-.88.19s.18-.8-.26-1-.64.29-.64.29A15.91,15.91,0,0,1,76,45.79c.64.93,1.54,2,1.54,2l-.46.31s-.62-1-1.61-2.3A23.13,23.13,0,0,0,73.94,44s0-.1.21-.34.75-.73,1.29-.48.27,1.1.27,1.1A1,1,0,0,1,76.5,44a1,1,0,0,1,.91,1,1,1,0,0,1-.53.82s-.06.26.45.2c.3,0,.51-.48.51-.48s.76.68,1.16.16a1.4,1.4,0,0,0,.09-.17l-.19,0a.94.94,0,0,1,0-1.87.77.77,0,0,1,.31,0,.83.83,0,0,1-.46-.7,1,1,0,0,1,.88-.88,1,1,0,0,1,1,.82.85.85,0,0,1-.26.61.74.74,0,0,1,.56-.19.93.93,0,0,1,0,1.86h-.12l0,0a1.25,1.25,0,0,0,.6.25c.62.11.69-.37.69-.37a.68.68,0,0,0,.59.18c.48-.16.38-.45.38-.45a.93.93,0,0,1-.82-.49.72.72,0,0,1,.21-1.11,1.4,1.4,0,0,1,1-.1s-.53-.62-.13-1.07,1-.24,1.37-.08a4.64,4.64,0,0,1,.51.23,7.47,7.47,0,0,0-.72,2.08c-.4,1.79-.63,2.76-.63,2.76L83.33,47s.27-1.55.55-2.69a6.06,6.06,0,0,1,.61-1.7s-.49-.44-.76-.06.38.71.14,1-.69,0-.9.13-.31.34-.11.62a.6.6,0,0,0,.61.18s.32,1-.38,1.4a.8.8,0,0,1-.88-.08s-.15.45-1,.43"/><path class="cls-1" d="M80.13,48c1.16-.13,1.94-.34,1.89-.65s-1-.26-2.15-.14-2.08.38-2.06.58,1.16.33,2.32.21m-3.2,0c-.06-.49,1.45-1.06,3.35-1.28s3.5,0,3.56.51-1.45,1.06-3.35,1.27-3.5,0-3.56-.5"/><path class="cls-1" d="M93.11,44.48a1.26,1.26,0,0,1-1-.82.73.73,0,0,1,.28-.77l0,.06,0,.06v0c.09.06.21,0,.33,0,.27,0,.32-.12.31-.36a.4.4,0,0,0-.48-.4,1,1,0,0,1-.79,0c-.07,0-.08-.27,0-.46s.12-.34.12-.4-.21-.29-.39-.28a.35.35,0,0,0-.35.33c0,.24.16.33.26.45a.32.32,0,0,1,0,.42,2.55,2.55,0,0,1-.5.22v0h-.11c-.27,0-.46.14-.45.39a.39.39,0,0,0,.43.41.5.5,0,0,0,.4-.23.86.86,0,0,1,.35.69c-.06.38-.09.69-.8.91a1,1,0,0,1-1-.17.68.68,0,0,1-.7.45c-.81-.09-1-1.06-1-1.06a.58.58,0,0,0,.51-.43c.14-.36-.11-.59-.5-.64s-.55.33-.88.19.17-.8-.26-1-.64.29-.64.29a15.31,15.31,0,0,1,1.42,1.8c.65.93,1.55,2,1.55,2l-.46.31s-.62-1-1.61-2.3a21.73,21.73,0,0,0-1.5-1.84s0-.1.21-.34.75-.73,1.3-.48.27,1.1.27,1.1a1,1,0,0,1,.78-.26,1,1,0,0,1,.92,1,1,1,0,0,1-.53.82s-.06.26.44.2c.31,0,.51-.48.51-.48s.76.68,1.17.15c0,0,.06-.11.09-.16l-.2,0a.94.94,0,0,1,0-1.87.78.78,0,0,1,.31,0,.81.81,0,0,1-.46-.7,1,1,0,0,1,.88-.88,1,1,0,0,1,1,.82.89.89,0,0,1-.26.61.73.73,0,0,1,.55-.19.93.93,0,0,1,0,1.86h-.12l0,0a1.23,1.23,0,0,0,.6.26c.62.11.69-.37.69-.37a.68.68,0,0,0,.59.18c.48-.16.38-.45.38-.45a.93.93,0,0,1-.82-.49.72.72,0,0,1,.21-1.11,1.38,1.38,0,0,1,1-.1s-.52-.62-.12-1.07,1-.24,1.37-.08a3.92,3.92,0,0,1,.5.23,7.9,7.9,0,0,0-.72,2.08c-.39,1.79-.63,2.76-.63,2.76l-.49-.14s.28-1.55.56-2.69a5.66,5.66,0,0,1,.61-1.7s-.49-.44-.77-.06.39.71.14,1-.69,0-.89.12-.31.35-.11.63a.6.6,0,0,0,.61.18s.32,1-.38,1.39a.81.81,0,0,1-.89-.07s-.14.45-1,.43"/><path class="cls-1" d="M92,46.23c1.16-.12,1.94-.34,1.89-.65s-1-.26-2.15-.14-2.08.38-2.06.58,1.16.33,2.32.21m-3.2,0c-.06-.49,1.44-1.06,3.35-1.28s3.5,0,3.56.51-1.45,1.06-3.36,1.27-3.5,0-3.55-.5"/><path class="cls-1" d="M88.2,52.59a1.24,1.24,0,0,1-1-.81.72.72,0,0,1,.27-.77l0,.05,0,.06h0c.08.06.21,0,.33,0s.32-.11.31-.36a.4.4,0,0,0-.49-.39,1.13,1.13,0,0,1-.79,0c-.07-.05-.08-.28,0-.46s.12-.35.12-.4-.21-.29-.4-.29a.35.35,0,0,0-.35.33.67.67,0,0,0,.27.46.3.3,0,0,1,0,.41,2.07,2.07,0,0,1-.5.22v0a.4.4,0,0,0-.11,0c-.26,0-.45.14-.44.38a.38.38,0,0,0,.42.41.51.51,0,0,0,.41-.23.89.89,0,0,1,.34.69c-.05.38-.08.69-.8.91a1,1,0,0,1-.95-.16.67.67,0,0,1-.7.45c-.81-.1-1-1.07-1-1.07a.57.57,0,0,0,.5-.42c.14-.37-.1-.6-.5-.65-.24,0-.54.34-.88.2s.18-.8-.26-1-.63.29-.63.29a16.72,16.72,0,0,1,1.42,1.8c.64.93,1.54,2,1.54,2l-.46.31s-.62-1-1.61-2.3c-.84-1.13-1.49-1.84-1.49-1.84s0-.09.21-.34.75-.72,1.3-.48.26,1.11.26,1.11a.94.94,0,0,1,.79-.26c.53.07,1,.56.91,1a1,1,0,0,1-.53.82s-.06.26.45.21c.3,0,.51-.49.51-.49s.76.68,1.16.16a.91.91,0,0,0,.09-.17.63.63,0,0,1-.19,0,.93.93,0,0,1-.93-.93.92.92,0,0,1,.9-.94c.19,0,.06,0,.31,0a.83.83,0,0,1-.46-.7,1,1,0,0,1,.88-.87,1,1,0,0,1,1,.81.91.91,0,0,1-.26.61.7.7,0,0,1,.55-.19.94.94,0,0,1,0,1.87h-.12l0,0a1.18,1.18,0,0,0,.59.25c.62.12.69-.37.69-.37a.68.68,0,0,0,.59.18c.49-.15.39-.45.39-.45a.94.94,0,0,1-.83-.49.71.71,0,0,1,.21-1.1,1.43,1.43,0,0,1,1-.11s-.53-.62-.13-1.06,1-.25,1.37-.09a4.64,4.64,0,0,1,.51.23,7.65,7.65,0,0,0-.72,2.09c-.4,1.78-.63,2.75-.63,2.75l-.49-.13s.27-1.55.55-2.7a6.06,6.06,0,0,1,.61-1.7s-.49-.43-.76-.06.38.72.14,1-.69,0-.9.13-.31.34-.11.63a.61.61,0,0,0,.61.17s.32,1-.38,1.4a.81.81,0,0,1-.88-.07s-.15.44-1,.42"/><path class="cls-1" d="M87.1,54.34C88.27,54.22,89,54,89,53.7s-1-.27-2.15-.15-2.08.39-2,.59,1.15.32,2.31.2m-3.2,0c-.05-.49,1.45-1.06,3.36-1.27s3.49,0,3.55.5-1.44,1.06-3.35,1.28-3.5,0-3.56-.51"/><path class="cls-1" d="M63.78,42.19c-1.55,1.72-.53,4.18-.89,6.37-.61,1.77-2.47,2.89-3,4.69-.14,1-.26,2.51.47,3.29.05-.14-.09-.22-.12-.33-.3-2.14.36-3.66,2.22-5.47,2.83-3.2-.48-5.78,2.2-8.19Z"/><path class="cls-1" d="M70.38,62.35a13.31,13.31,0,0,0,3.41-.53c1.25-.37,2.26-.73,3.41-1.13,2.5-.77,3.9-1.36,6.51-1.41H84a7.41,7.41,0,0,1,2.07.33,6.46,6.46,0,0,1,1.11.61c1.67,1.44,1.78,2.25,3.88,3.55,1,.36,1.84,1.36,2.59,1.56a15,15,0,0,1-1.31-1.12c-1-.87-2.68-3.08-4.52-4.46a8,8,0,0,0-3.27-1,13.59,13.59,0,0,0-6.9,1.08A25.88,25.88,0,0,1,72.62,61a4.13,4.13,0,0,1-2.11-.11c-.28-2.26-1.09-1.82-.79-4.49A12.21,12.21,0,0,0,69.16,48a3.06,3.06,0,0,0-.4-2.9c-.63-.62-2.31-.77-2.63.34.18.88,1.33.34,1.89.74.67.18.61,1,.51,1.41-.16,1.29-1.66,2-2.64,2.2.37.76,1.87.27,2.36-.18a7.21,7.21,0,0,1,1,2.83c.12,2.58-.62,2.46-1.59,4.12-.44.89-.41,2,.27,3.8-.19-2.7.16-2.86.92-4.07a9.8,9.8,0,0,0-.25,2.16c0,1.25.69,1.61.74,2.74a3.87,3.87,0,0,1-.87,2.13c-1.18,1.55-3.26,1.37-4.09,5.33,1.53-2.26,1.88-2.85,3.31-3.66,1.91-.81,2.2-1.44,2.64-2.59"/><path class="cls-1" d="M54.51,48.31c-.18-.54-.34-1.09-.92-1.21-.59-.31-1.13,1.16-1.32,0-.24-.68.56-1.19-.2-1.75-.62-.94.3-1.16,0-2.17,0-.74-.17-1.71.86-1.76a8.72,8.72,0,0,1,4.62.08,1.61,1.61,0,0,0,.62-.83,2.8,2.8,0,0,1,1.15.11,9.52,9.52,0,0,1,1,.47c-.45.06-1.21.14-1.16.76.3.73,1-.29,2.84.91a1,1,0,0,1,.47.72c-.87-.4-1.34-.26-2.06-.58a2.1,2.1,0,0,0-1.33-.11c-.22,0-1.13.7-1.1.23a3.48,3.48,0,0,0-.12-.73c-.15-.44-.35-.4-.74-.53a7.86,7.86,0,0,0-3.91-.13.87.87,0,0,0-.41,1.15c.35.71.48.6.87.58.32-.19.5-.67,1.05-.71s.74,0,.87.44v.25c-.14-.32-.58-.18-.8-.08s-.19.2-.11.33.32.13.54.17c-.2.34-1.1.45-1.69.38-.22,0-.24.29-.35.35-.21.28-.08.53,0,.83.91,1.09,2.44,1.18,3.62,1.94a2,2,0,0,1,.64.93c-.55-.26-.69.6-.68.77L57,49a3.82,3.82,0,0,0,.68-.34c.31.3.21.77.29,1.15.13-.33,0-.69.24-1.09a7.77,7.77,0,0,1-.84,7.09c-1,2.15-.92,2.6-.81,5.52-1.43-3-.35-4.54-.05-6.4a.57.57,0,0,0-.2-.57,2.77,2.77,0,0,1-.71,2.14,3.92,3.92,0,0,0-.58,4c.46,1.35.83,1.88.68,3.28a7.3,7.3,0,0,0-.08,3.94,5.91,5.91,0,0,1-.7-4.1,4.33,4.33,0,0,0-.81-2.9l.38.32c-.37,2.48-3.76,2.72-2.51,6.07A11.54,11.54,0,0,1,53.47,70c-.72-1.22-1.6-1.3-2.21-2.6-1.63-.32-2.92.87-4.5,1.36a2.92,2.92,0,0,1-3.37-.65c2.87,1,4.85-.83,6.67-1.53,1-.47.61-1.21.75-1.86.33-2,2.18-1.88,2.74-3.77,0-1.58-.21-2.55.28-3.6s1.24-.77,1.35-2.1c.45-1.55-1.84-1.7-1.39-3.62a3.43,3.43,0,0,0,1.22.81,7.58,7.58,0,0,1,2.21,1.64,4.51,4.51,0,0,0-1-1.48L55.47,52c.07-.31.43-.48.73-.69-.09.88,1,1.29,1.42,1.83a7.34,7.34,0,0,0-.34-3.62.75.75,0,0,0-.66.3,2.57,2.57,0,0,1,0-1.88c0-.32-.28-.12-.44-.09a2.88,2.88,0,0,0-.41.26l-.43-.74a1.67,1.67,0,0,0-.84.93m-.35-1.47a1.6,1.6,0,0,1,.35.7c.24.05.32-.36.51-.39ZM53,46.07c-.13.31-.48.7-.25,1l.53-.67a1,1,0,0,1-.28-.33m2.91,3.22c.7.5.85,1.11,1.45,1.67-.28-.07-2-1.32-2.87-1-1.28.11-3,1.27-4.13.07a3.55,3.55,0,0,1-1.42-2.43c.72,1.22,2,2.45,3.63,2.13a7.19,7.19,0,0,1,2.07-.27,2,2,0,0,1,1.45.47A3,3,0,0,0,54,49c-1.9,0-3.88.89-5.06-1.38,1.1.85,3.36.94,5.25.91a2.75,2.75,0,0,1,1.72.74"/><path class="cls-1" d="M67.68,47a1.56,1.56,0,0,1-.3,1.13c-.13.23-.38.26-.57.35,0-.33.73-.71.3-1.14l-.75-.58c.29-.31,1.14-.33,1.32.24"/><path class="cls-1" d="M55.28,51.82a.66.66,0,0,1-.54-.1c-.69-.31.08-.6.13-1,.25.24.21.74.41,1.06"/><path class="cls-1" d="M58.13,59.55a9,9,0,0,1-.37,3.22,7.47,7.47,0,0,1-1,2.13,12.85,12.85,0,0,0,.9-3.77c.14-1.33.09-3.25.62-4.33l.46-1.29a17.88,17.88,0,0,0-.61,4"/><path class="cls-1" d="M41.13,74.17c.34-.43.55-.31.74-.38.24.24.17.52.54.69.54.27,1.29-.27,1.67-.53a4.38,4.38,0,0,0,1.63.68c.59,0,.81-.59,1.35-.59s.86.67.86.67.54,0,3.39-.51,2.16,1.38,2.16,1.38a2.54,2.54,0,0,0,2.23-1,7.79,7.79,0,0,0,2-3.44c.25-1.24.3-5.93.3-5.93a17.58,17.58,0,0,0-.89,3.31,8.23,8.23,0,0,1-1.37,4.2,3.62,3.62,0,0,1-1.13.73,2.24,2.24,0,0,0-.65-1A2,2,0,0,0,53,72s-2.11,1.43-2.89,1.37.06-1.37.06-1.37-2.37.89-3.58,1.24S45.18,73,45.18,73a4.78,4.78,0,0,1-2.58.48c-.68-.38-1-.75-1.29-.34l-.69.75c-.67-1.54,1.11-2.1,1.63-2.64l-1.14-.12a.94.94,0,0,1-.59-1,13.21,13.21,0,0,0-1.72.41c.1-1.26,1.65-.71,2.25-1.53a.82.82,0,0,1,1.07-.14s-1.4-.9-1.3-1.29c.37-1.35,2.65.69,3.18,1-.17-.26-.37-.38-.57-.7a2.32,2.32,0,0,0-4.28,0c.11.2.9-.44,1,.1a7,7,0,0,0,.44.64,11.57,11.57,0,0,1-1.43.51c-1.48.53-1.52,2.48-1.52,2.48a16.34,16.34,0,0,0,2-.47l.2-.07c.23.77.93.24.1,1.7-.44.77.39,2.2.39,2.2a2.09,2.09,0,0,0,.83-.79"/><path class="cls-1" d="M60.92,63.22a13.15,13.15,0,0,0-1.82,5.17c-.44-2,0-3.55,1.6-6.2,2.22-3.27,1-6.46,1.19-7.45,1.73,6-.32,7.36-1,8.48"/><path class="cls-1" d="M53.79,66.64a7.85,7.85,0,0,0,.77,2,4.86,4.86,0,0,1,.32,3.59,9,9,0,0,0-1.2-3.84,4.94,4.94,0,0,1-.5-3.07A3.35,3.35,0,0,1,54,64a4.06,4.06,0,0,0-.16,2.67"/><path class="cls-1" d="M60,70.37a12,12,0,0,1-1.8,2.24c.41-3.17,2.38-3.63,3.23-7.51A11.45,11.45,0,0,1,60,70.37"/><path class="cls-1" d="M73.24,74.79a6.71,6.71,0,0,1,1.15.39,10,10,0,0,0-1.91-.38,2.41,2.41,0,0,1-.62,0c-1.46-.1-3.11-.5-4.23-.09C65.8,75.46,63.8,77,63.44,78c-1,2.05-3.4.35-5,2.29-.43-.45.19-1.18,1.09-1.75.68-.35,2.36.16,3-.61.38-.41-.51-1.36-1.62-.9-1.45.56-1.46,1.3-2.29,1.78A2.8,2.8,0,0,1,61,76.33c.73-.18,1.43.24,2.25.08a21.1,21.1,0,0,1,2.58-1.47,6,6,0,0,1,2.26-.65,22.33,22.33,0,0,1,5.13.5"/><path class="cls-1" d="M55.92,52.15a3.37,3.37,0,0,1-.55-.15c-.43-.14-.93-.37-1-.39l-.32-.1a.34.34,0,0,1,.22-.15,3.73,3.73,0,0,1,1.13.34,3.25,3.25,0,0,1,.7.42Z"/><path class="cls-1" d="M68.28,43.82a1,1,0,0,0,.09.54c.13.35.24.62.24.62S66.88,45,67,44.79s.27-.46.19-.62a4.64,4.64,0,0,0-.3-.46Z"/><path class="cls-1" d="M58.24,48.67c-.2-.57-.35-.89-1.51-1.51a14.67,14.67,0,0,0-2.5-1,5.22,5.22,0,0,0-1-.3c.08.06,2.31,1.32,2.74,1.51a5.32,5.32,0,0,1,1.27.65c.22.21.27.21.38.51s0,.67.19,1,.35.38.35.38a1.92,1.92,0,0,0,.05-1.32"/><path class="cls-1" d="M55.16,44.57a4,4,0,0,1,1.47.21c.49.17.67.94,1,1.36,0,0-1.19-1.28-2.14-1.24-.16,0-.64-.33-.33-.33"/><path class="cls-1" d="M54.57,45.27a1.41,1.41,0,0,1,.91.12c.31.11.47.37.76.77L56,46s.06,0-.35-.21a7,7,0,0,0-.79-.31c-.18-.1-.42-.19-.25-.23"/><path class="cls-1" d="M65.19,43.77a2.92,2.92,0,0,0-.85,1.89,20.85,20.85,0,0,0,.4,4,4.87,4.87,0,0,1-.52,3.36,5.45,5.45,0,0,0-.77,2.86,5.4,5.4,0,0,0,1.06,2.64A5.67,5.67,0,0,1,64,55.3c.32-1.58,1.25-2.51,1.37-3.64A10.6,10.6,0,0,0,65,48.09c-.44-1.94-.44-3.19.21-4.32"/><path class="cls-1" d="M63.75,63.43a6.2,6.2,0,0,0,.89-2.61c0-1.24-.78-2.48-1-3.77a4,4,0,0,1,0-2.45,2.69,2.69,0,0,1,1.08-1.43,6.25,6.25,0,0,0-.67,2,5.92,5.92,0,0,0,.37,2.72c.49,1.47,1,2.91.65,4a6.35,6.35,0,0,1-1.19,2.07c-.35.46-.56.49-.08-.51"/><path class="cls-1" d="M61.4,72.85c-.18.13-.4.28-.66.44a2,2,0,0,1-.57.19s.32-.37,1.08-1.43c1.21-1.81,1.14-3.7,1.56-5.58a15.93,15.93,0,0,1,1.86-3.71,8.44,8.44,0,0,0,.15-3.07c-.08,4-2.18,3.79-2.71,6.92A9.6,9.6,0,0,1,60,71.93,12,12,0,0,1,55,75.71c2.21.43,3.71-.19,5.65-.27a10.62,10.62,0,0,1,1.94.16c.41.19.54-.29,1.73-.91a13.4,13.4,0,0,1,2.26-1,7,7,0,0,1,2.65-.36c-.15-.08,3.13-.14,2.66-.45-.19-.74-1.35-.08-1-.5-1.19.56-1.4.14-2.81.43a19.41,19.41,0,0,1-2,.12,3.52,3.52,0,0,1-1-.2,1.1,1.1,0,0,1-.7-1.08,10.47,10.47,0,0,1,0-1.19,6.24,6.24,0,0,0-.1-1.39,9.49,9.49,0,0,1-2.95,3.73"/><path class="cls-1" d="M87.76,64.41A8.41,8.41,0,0,0,84.25,62,12.86,12.86,0,0,0,77,63.12c-2.06,1.05-2.86,2.55-4,4.48a6.55,6.55,0,0,0-.76,1.49c-.35,1-.38,1.5.23,1.79.31.14,1.78-.57,1.78-.57-.34-.47-1.55-.23-1.55-.23A4.53,4.53,0,0,1,73.9,69a2.38,2.38,0,0,1,1.42-.16l-.69-.49a5.33,5.33,0,0,1,.65-2,5.12,5.12,0,0,1,4-3.43c2.66-.69,4-.85,5.61-.08a20.94,20.94,0,0,1,2.83,1.61"/><path class="cls-1" d="M91.92,67.15s.19,2.88-.65,4.23a16.07,16.07,0,0,1-2.85,3c2.21.87,6.19-.32,6.84-2.53A4.09,4.09,0,0,0,94,67.31a2.14,2.14,0,0,0-2-.16m-5.84,7.56a13.74,13.74,0,0,0-1.89-.94c-.9-.36-2.12-.74-2.12-.74s2.91-.51,4.52-.87a8.2,8.2,0,0,0,2.1-.68,2.58,2.58,0,0,0,.89-.64s.36-.17.89-1.57c.42-1.11-.17-3.09.08-3.42.48-.64,3.64.18,5,2.32,1,1.58.12,4.16.12,4.16s.9-.35,1-2.71c.12-2.74-3-4.29-3-4.29a5.16,5.16,0,0,1,3.09,2.38c1.18,2,.46,4.45-1.21,6.6s-5.42,2.1-6.92,1.78a4.68,4.68,0,0,1,.91,1.53c.35,1.46-.13,2.29-.7,2.62a19.77,19.77,0,0,1-4.07.48c-.86,0-1.21,0-2.47.11a24,24,0,0,1-3.24-.16,7.11,7.11,0,0,0-1.39.29c-1.27.3-1.24,0-1.24,0s.21-.62-1.4-.38a13.78,13.78,0,0,1-2,.16,3.69,3.69,0,0,1-2.47.24c-1.59-.29-1.73-1.29-1.73-1.29a6.34,6.34,0,0,0,2.51.54,2.77,2.77,0,0,0,1.94-.76s.33.52,1.64.09A3.51,3.51,0,0,0,76,79s2.55.16,2.8.19c.89.11,2.83.27,2.83.27s.21,0,1.83.11c1.11.07,2,.14,2-.14s-.81-.6-.81-.6,1.53.2,2.29.23a2.38,2.38,0,0,0,1.32-.27,1.22,1.22,0,0,0,0-1.43c-.42-.46-.29-.42-.85-.69-1.38-.64-1.17-.93-1.17-.93s-.39-.51.48-.12c.44.21-.08-.56-.08-.56a2.05,2.05,0,0,0-.59-.37"/><path class="cls-1" d="M80,72.33a4.22,4.22,0,0,0,.73.24c.36.09,1.94.69,1.94.69a1.29,1.29,0,0,0,1-.29c.52-.56-1.39,0-1.3-.57,0-.19-.34-.43-.34-.43a4.06,4.06,0,0,0-1-.08c-.88.08-1,.44-1,.44"/><path class="cls-1" d="M66.33,73a15.63,15.63,0,0,0,3.13-.49,20.39,20.39,0,0,0,2.55-1,6.2,6.2,0,0,1,1.56-.08.66.66,0,0,0-.36.53,1.2,1.2,0,0,0,.08.75,2.1,2.1,0,0,1,1-.13.73.73,0,0,1,.55.35s-.44.7.15.88,1.34.2,2.56.61a19.56,19.56,0,0,0,2.91.73c.94.19,2,.52,2,.52s.15.14-.2.33.92.56.92.56.13.08-.76,0a11.31,11.31,0,0,1-1.81-.21,11.74,11.74,0,0,0-1.91-.3,9.52,9.52,0,0,0-1.34-.13c-.41,0-1.75-.09-3.16-.25a13.6,13.6,0,0,1-3.25-.7,3.11,3.11,0,0,0-1.73,0,1,1,0,0,0-1.07-.08,2.12,2.12,0,0,0-1,1.07,1.66,1.66,0,0,1,1.36-.1.62.62,0,0,1-.14.73,4.27,4.27,0,0,1-1,.59s0-.19-1.5-.19-1.65-.21-2.16.51-.27-1.18-.27-1.18.35-.56,2.35-1.51A9.56,9.56,0,0,1,70.08,74a13.31,13.31,0,0,1,2.69.22,20.19,20.19,0,0,1,2.16.64,7.37,7.37,0,0,0-2.1-1.13,15.08,15.08,0,0,0-5.93,0c-1.56.35-2.15,0-2-.22s1.42-.4,1.42-.4"/><path class="cls-1" d="M67.15,75.93a2,2,0,0,1,1.18-.09.76.76,0,0,1,.4.28,5.1,5.1,0,0,0,.46.42s-1.69.14-1.34.95a1.2,1.2,0,0,0,1.26.67,1.23,1.23,0,0,0-.62.73.72.72,0,0,0,.35.78l1.38.54-.84.29s-.56-.24-.7.11a4.4,4.4,0,0,0-.19.71A2.51,2.51,0,0,1,67.85,80a1.76,1.76,0,0,1,.48-1.32.55.55,0,0,0-.78,0,1.88,1.88,0,0,0-.43.83,2.45,2.45,0,0,1-.7-1.3A1.59,1.59,0,0,1,66.9,77Z"/><path class="cls-1" d="M53.47,59.85a3.7,3.7,0,0,1,.13-2,5,5,0,0,1,1.16-1.62c-.84.48-1.23,0-3.37-.6a13.16,13.16,0,0,0-4.1-.5,9.61,9.61,0,0,1-3.13-1.49c-.31-.26-.25-.5-.44-1.12A1,1,0,0,0,42.59,52a.74.74,0,0,0-.54.37s-.22.06-.65.14-.67.62-.67.62a1.52,1.52,0,0,1,.72-.14,1.15,1.15,0,0,1,.61.33c0,.94-.08,1,.3,1.61a9.38,9.38,0,0,0,1.57,1.81,19.67,19.67,0,0,0,2.72,1.4c.17.07,1,.48,1.78.75A4.13,4.13,0,0,1,50,60.09s0-.93,1.3-.51a7.42,7.42,0,0,0,2.21.27M40,55.84a1.36,1.36,0,0,0-1,1.34c.21.59.35.74,1.06.83.34-.08.6-.14.62-.38,0,0-.16-.15,0-.29a1.6,1.6,0,0,1,1.22-.29,3.55,3.55,0,0,0-1.11-.73c-.7-.62-.23-1,.08-1.21a2.23,2.23,0,0,1,1.32.11L41,53.79c-.54-.34-1.45-.47-1.71.3,0,.21-.09.77.15.91.4.43.62.54.59.84M41.19,51a1.24,1.24,0,0,0-1.4.23c-.15.31-.15.94.21,1.07,1.16.19,1-.74,2.14-.61a3.07,3.07,0,0,1-1-.69m13.53,6.58c-.45,2.95-1.5,4.28-1.78,5.29a2.5,2.5,0,0,0-.85-1c-.56-.37-1.53.22-1.53.22a7.5,7.5,0,0,0-2.91-2c-1.65-.69-1.46.74-1.46.74L44.31,58.8c-.7-.77-1.43-.45-2.07-.24a9.54,9.54,0,0,1-2.55-.08,1.44,1.44,0,0,1-.4-2.83,1.74,1.74,0,0,1-.81-1.54c.08-1,1.17-1,1.17-1s-.81-.64-.77-1.17a2.17,2.17,0,0,1,1.5-1.45c.6-.08,2.76,1.09,3.75,1.33s.5,1.4,2.12,2a9.27,9.27,0,0,0,3.38.58c1.49,0,2,.56,3.71,1s1.86-.29,1.86-.29-.32,1.37-.48,2.43"/><path class="cls-1" d="M66.82,49.77a6.09,6.09,0,0,1,0,2.34c-.55,1.4-1.34,1.7-1.58,3a10,10,0,0,0,.49,4.3A4.59,4.59,0,0,1,66,62.21c-.33.76-.94,1.54-1.38,2.46a12.33,12.33,0,0,0-.7,2.11A20.34,20.34,0,0,1,65,64.67a14.28,14.28,0,0,0,1.64-2.61c.71-2-.35-3.32-.56-4.47A4.28,4.28,0,0,1,67,54a5,5,0,0,0,1.1-2.59,12,12,0,0,0,.19-2Z"/><path class="cls-1" d="M33.79,91.31s32.25-.82,40.5-1.57c2.21-.2,6.13-.32,8.57-.56s6.06-.41,6.06-.41a12.78,12.78,0,0,1-3.88.77c-3.13.28-9,1-11.71,1-3.31,0-14.33.79-17.63,1a162.86,162.86,0,0,1-21.91-.18"/><path class="cls-1" d="M38.4,50.09a.46.46,0,0,0,.47-.44.47.47,0,0,0-.94,0,.46.46,0,0,0,.47.44M52.66,12.48,44.38,49.35s0,.46.2.56a3.7,3.7,0,0,1,.69.31,3.18,3.18,0,0,1,.54.42,5.29,5.29,0,0,1-1.35-.26,1.15,1.15,0,0,1-.81-.67l8.42-37.12c.26-1.59.83-4.93.91-5.76s-.11-.65-.43-.25a21.37,21.37,0,0,0-1.83,5.15S42.64,45.6,42.48,46.55A5,5,0,0,1,42,48.68c-.46.77-.87.92-1.41.87s-1-.06-1.07.26.27.37.73.42a3.94,3.94,0,0,0,1.55-.1c.59-.16.83-.24.83-.24a1.89,1.89,0,0,0,.3.47,3.32,3.32,0,0,0,.87.62,4.55,4.55,0,0,0,1.62.33.62.62,0,0,1,.7.49c.08.21.49.45,1,.19a.75.75,0,0,0,0-1.15c-.41-.36-1,0-1.1-.15s.42-.74,1.2-.46A1.24,1.24,0,0,1,48,52c-.3.91-1.3.9-1.84.82s-.83-.49-1-.54a4.63,4.63,0,0,0-.59-.08S41,50.72,40.73,50.67a5.24,5.24,0,0,0-1.32.13c-.27.05-.46.35-1.13.24-.38-.06-1.58-.52-1.21-1.63a1.35,1.35,0,0,1,1.67-1c.44.07.47.48.85.54s.87,0,1-.48S49.45,13.4,49.45,13.4c1.24-4.1,2.18-6.6,3-7.65s1.21-2,1.08.37a38.42,38.42,0,0,1-.89,6.36"/><path class="cls-1" d="M57,69.22a24.65,24.65,0,0,1,1.21-5.77,27.14,27.14,0,0,0,1.54-4.08,39.79,39.79,0,0,0-.12-4.21c.08-.88.16-1.73.16-1.73h.56a14.27,14.27,0,0,0-.08,2.87,8.65,8.65,0,0,1,.12,3.51c-.48,1.74-1.43,2.91-1.8,4.35a24.93,24.93,0,0,0-.78,5.68Z"/><path class="cls-1" d="M36.72,49.86a.52.52,0,1,0-.54-.51.53.53,0,0,0,.54.51"/><path class="cls-1" d="M40.66,61.83a.7.7,0,0,0,.71-.69.71.71,0,0,0-1.42,0,.7.7,0,0,0,.71.69"/><path class="cls-1" d="M39.85,58.27s.21-.14,0,.1a1.43,1.43,0,0,0,.89,2.55,1.5,1.5,0,0,0,1.8-1.09,1.22,1.22,0,0,0-.3-1.33c-.23-.23-1.14.08-1.14.08a1.09,1.09,0,0,1,.53,1,.62.62,0,0,1-.75.52.63.63,0,0,1-.58-.79,1.31,1.31,0,0,1,.72-.76.43.43,0,0,1,.17-.37c.18-.12-1.32.06-1.32.06"/><path class="cls-1" d="M48.46,52.68a.75.75,0,1,0-.73-.75.74.74,0,0,0,.73.75"/><path class="cls-1" d="M44.87,74.85a19.51,19.51,0,0,0,1.74,3,28.32,28.32,0,0,1,2,2.91c.54.91,2.16,3.43,3.45,5.15s3.59,4.31,3.59,4.31-3-4.72-3.92-6-1.77-2.7-2.64-3.83-3.67-5.11-4.21-5.59"/><path class="cls-1" d="M52.52,74.76s3.55,4.31,5.33,6.41S60.54,84.94,61.4,86s3.38,3.94,3.38,3.94a19,19,0,0,0-2.73-4.37c-1.38-1.47-2.53-3.34-3.66-4.68s-2.86-3.66-3.61-4.31-1.89-1.83-2.26-1.78"/><path class="cls-1" d="M63.83,78.19s4.43,5.5,5.18,6.25,3.13,4.1,3.13,4.1,2.57,2.57.88.15c-.42-.59-2.62-3.39-3.59-4.63s-2.1-2.53-3-3.61a20.25,20.25,0,0,0-2.59-2.26"/><path class="cls-1" d="M74.69,80.68a9.06,9.06,0,0,0,1.46,2c.75.7,2.21,2.37,2.69,3s3.34,3,3.34,3a24.3,24.3,0,0,0-1.94-2.4c-.81-.8-1.67-1.66-2.32-2.42a44.49,44.49,0,0,0-3.23-3.23"/><path class="cls-1" d="M82.56,80.41s2.2,2.33,3.28,3.58a43.24,43.24,0,0,0,3.6,3.34,6.77,6.77,0,0,0-1.33-1.94,41.12,41.12,0,0,1-2.94-3.15c-.63-.78-1.58-1.72-1.58-1.72Z"/><path class="cls-1" d="M46.88,86s3.45-.36,5-.44,7-.16,9-.16,10.13-.65,12.94-.73,7.4-.65,8.5-.65S93,83.8,93,83.8a21.15,21.15,0,0,1-4.42.63c-.63,0-6.72.54-7.66.54S77.2,85,77.2,85a36.31,36.31,0,0,1-4,.18,26.31,26.31,0,0,0-4,.31s-1.28,0-2.91.17-4.6,0-4.91.08a36.37,36.37,0,0,1-4.6.36,28,28,0,0,1-4-.12c-.23-.08-1.82.09-2.75.09S46.88,86,46.88,86"/><path class="cls-1" d="M66.82,79.91H61.54c-.91,0-4.08.26-4.08.26s-2.81-.1-4.26-.1-7.89.38-7.89.38a66.51,66.51,0,0,0,7.91.08c1.42,0,4.3,0,4.89,0s3.27,0,4.08-.08c4.57-.28,4.63-.54,4.63-.54"/><path class="cls-1" d="M56.39,75.83s-4.42.06-6.2.14-5.25.08-5.25.08a16.16,16.16,0,0,1,2.75-.35c1.7-.08,3.23,0,4.2-.08a34.8,34.8,0,0,1,4.5.21"/><path class="cls-1" d="M28,60.54a.28.28,0,0,0-.22,0h-.09a.14.14,0,0,0-.07.08l0,.06a.65.65,0,0,0,0,.77c.2.22.61.2.59.63v.05l0-.16,0,.05-.11.23,0,.12a.28.28,0,0,0,0,.25v0a1.59,1.59,0,0,0,1,.73,1.81,1.81,0,0,0-.29.65v.11a.28.28,0,0,0,.05.2l0,.06c.12.28.43.39.66.57.07.06,0,.16,0,.3a.76.76,0,0,0,.27,1c.19.15.45.22.56.44s-.12.62-.08,1a.92.92,0,0,0,.89.85s.1.06.09.07c-.07.27-.27.48-.23.78,0,.47.46.62.77.85-.06.12.07.25-.09.36a1,1,0,0,0,.88,1.19s.12.1.24.1a.1.1,0,1,0,.09-.17c-.22-.27-.55-.49-.59-.87a1,1,0,0,0-.53-1.43s-.05-.08,0-.11a1.23,1.23,0,0,0,.09-1.1,1,1,0,0,0-.75-.44s-.05-.11,0-.17a2.63,2.63,0,0,0,.07-1,1.39,1.39,0,0,0-.85-.9.17.17,0,0,0-.11,0,1.07,1.07,0,0,0-.59-1.6L29.35,64l.06.19,0-.12c.15-.37.3-.84-.09-1.16-.22-.18-.51-.18-.73-.35l-.1-.2,0,.19,0-.12s0,0,0,0l.09-.17a.29.29,0,0,0,0-.16V62a1,1,0,0,0-.82-.78c-.12,0-.11-.21-.08-.32l.05-.17-.05.07.1,0c-.09-.15.06-.1.1-.14s0,0,0,0,0,0,0,0"/><path class="cls-1" d="M31.59,59.82c-.08,0-.07.06-.14.1h-.08a.14.14,0,0,0-.08.09v0a.65.65,0,0,0,0,.77c.2.23.51.13.5.55v.06l0-.17,0,.06c0,.07-.07.15-.11.22l0,.13a.26.26,0,0,0,0,.24v0a1.61,1.61,0,0,0,1,.74,1.69,1.69,0,0,0-.29.64v.12a.25.25,0,0,0,0,.19l0,.07c.13.28.44.38.67.57.07,0,0,.15-.05.29a.77.77,0,0,0,.27,1c.19.15.45.21.55.43s-.11.62-.08,1a1,1,0,0,0,.9.86s.1,0,.09.07c-.07.26-.27.48-.24.78.06.46.47.61.78.84-.06.12.07.25-.09.36a1,1,0,0,0,.88,1.19s.13.1.24.11a.1.1,0,0,0,.13-.05.09.09,0,0,0,0-.13c-.23-.27-.55-.48-.59-.86a1,1,0,0,0-.53-1.44s0-.08,0-.1a1.23,1.23,0,0,0,.09-1.1,1,1,0,0,0-.75-.45s0-.11,0-.16a2.66,2.66,0,0,0,.07-1,1.39,1.39,0,0,0-.86-.91s-.06,0-.1,0a1.07,1.07,0,0,0-.59-1.6L33,63.28l.06.19,0-.12c.15-.37.3-.84-.09-1.15-.22-.18-.52-.18-.73-.36l-.1-.19,0,.18,0-.12v0l.09-.17a.28.28,0,0,0,0-.15v-.13a.79.79,0,0,0-.73-.71c-.12,0-.11-.2-.08-.32l0-.17,0,.07.1,0c-.1-.14,0-.1.1-.14s0,0,0,0-.11-.11-.13-.1"/><path class="cls-1" d="M34.9,59.4a.94.94,0,0,0,.41,1.45c.24.25,0,.33-.11.59l0,.07a.42.42,0,0,0,0,.15l0,0a1,1,0,0,0,.61.67H36l-.09-.08h0c.18.1.42.3.32.49a1,1,0,0,0,.49,1.41l.06,0-.15-.14.13.15a.22.22,0,0,1,.15.19.65.65,0,0,1-.1.37c-.24.54.25,1,.71,1.33a.21.21,0,0,1,.09.21c-.09.48-.32,1,.14,1.34a1.73,1.73,0,0,1,.63.79.16.16,0,0,0,.17.15.16.16,0,0,0,.15-.16.92.92,0,0,0-.15-1,1.78,1.78,0,0,0-.52-.36c-.06,0-.11-.21-.07-.31a1.26,1.26,0,0,0-.13-1.26c-.17-.18-.43-.25-.57-.47s.08-.73,0-1.11a.41.41,0,0,0-.11-.26l0,0a.29.29,0,0,0-.14-.13l-.17-.09a.77.77,0,0,1-.51-.5c-.08-.35.21-.68,0-1v-.09a.34.34,0,0,0-.18-.11l-.09,0h.07c-.09-.08-.24-.06-.31-.18l-.14-.15,0,.15v-.12a.07.07,0,0,1-.08-.09.81.81,0,0,0-.41-1.09c-.23-.13-.17-.45-.07-.68a.17.17,0,0,0-.09-.22.16.16,0,0,0-.22.09"/><path class="cls-1" d="M24.6,61.17A.94.94,0,0,0,25,62.62c.24.25,0,.54-.09.8v.07a.28.28,0,0,0,0,.15v0a1,1,0,0,0,.61.67h.11l-.09-.08h0c.19.1.42.3.32.49a1,1,0,0,0,.5,1.41l.05,0L26.3,66l.14.15a.22.22,0,0,1,.15.19.74.74,0,0,1-.1.37c-.24.53.25,1,.7,1.33a.2.2,0,0,1,.09.21c-.08.48-.31,1,.14,1.34a1.82,1.82,0,0,1,.64.79.16.16,0,0,0,.17.15.16.16,0,0,0,.15-.16.94.94,0,0,0-.15-1,1.71,1.71,0,0,0-.53-.36c-.06,0-.1-.21-.07-.31a1.24,1.24,0,0,0-.13-1.26c-.17-.18-.43-.25-.56-.47s.08-.73,0-1.11a.47.47,0,0,0-.11-.26l0,0a.4.4,0,0,0-.15-.14l-.17-.09a.74.74,0,0,1-.5-.49c-.09-.35.21-.68,0-1v-.09a.29.29,0,0,0-.18-.11l-.09,0h.06c-.09-.08-.24-.06-.3-.18l-.14-.15,0,.15v-.12a.08.08,0,0,1-.09-.09A1.05,1.05,0,0,0,25,62c-.23-.13-.17-.45-.07-.68a.17.17,0,0,0-.09-.22.16.16,0,0,0-.22.09"/><path class="cls-1" d="M28.12,70.25a.72.72,0,0,0,.34.82c.12.08.16.28.19.46l-.08-.13-.06.21,0,.12a.29.29,0,0,0,0,.16l0,.1a2.22,2.22,0,0,0,.78.83.29.29,0,1,0,.38-.43l-.52-.46-.1-.19v.17l0-.09a.81.81,0,0,0-.55-1.16c-.05,0-.12.08-.21-.06a1.5,1.5,0,0,1-.11-.36s0,0,0,0,0,0,0,0"/><path class="cls-1" d="M30.65,74.92l-.12,0v-.07a.16.16,0,0,0-.09,0l-.09.09c-.4.46,0,1,.2,1.43,0,0-.08.15-.2.23a.65.65,0,0,0-.07,1c.2.19.51.37.4.65s-.53.56-.5,1,.22.49.36.73-.25.68-.35,1.07a.73.73,0,0,0,.37.83c.18.41-.34.64-.43,1l0,0a.33.33,0,0,0,0,.17v.12a.78.78,0,0,0,.16.33c.11.16.36.26.34.46a1.1,1.1,0,0,1-.62.79.28.28,0,1,0,.31.47A1.47,1.47,0,0,0,31.2,84a1,1,0,0,0-.46-.82l0-.14,0,.17.06-.16a2.2,2.2,0,0,0,.46-1,1.73,1.73,0,0,0-.41-.9,2,2,0,0,0,.39-1.24c0-.36-.43-.54-.43-.88s.27-.39.34-.64c.14-.49-.19-.89-.26-1.34a.94.94,0,0,0,.17-.84c-.13-.34-.52-.58-.38-1l0-.1-.09,0h0l.08,0a.1.1,0,0,0,0-.16.11.11,0,0,0-.16,0Z"/><path class="cls-1" d="M34.12,74.66a.37.37,0,0,0-.37.12c-.45.48-.21,1.1.15,1.6a.27.27,0,0,1,0,.23A1.44,1.44,0,0,0,33.56,78c.09.27.31.43.45.67a.2.2,0,0,1,0,.23,1.14,1.14,0,0,0,0,1.76.52.52,0,0,1-.19.65l-.07.08a.52.52,0,0,0-.07.15v.11a1.69,1.69,0,0,0,.41,1.2.25.25,0,0,1,0,.24c-.37.34-.73.75-.59,1.27a.31.31,0,0,0,.34.3.32.32,0,0,0,.3-.34c0-.1,0-.22,0-.29.15-.34.52-.53.6-.93a1.37,1.37,0,0,0-.39-1,.5.5,0,0,1-.05-.32v-.12l-.06.15,0-.07a1,1,0,0,0,.33-1.15c-.08-.27-.33-.43-.41-.69-.11-.43.19-.76.3-1.16a.49.49,0,0,0,0-.24,2.29,2.29,0,0,1-.21-1c.05-.32.31-.56.36-.9s-.28-.81-.53-1.2a.59.59,0,0,1,.09-.69,0,0,0,0,0,0,0,0,0,0,0,0,0,0"/><path class="cls-1" d="M37.45,74.17a.43.43,0,0,0-.38.16c-.49.67,0,1.44.29,2-.1.09-.11.25-.2.33a1.45,1.45,0,0,0,.17,1.92l0,0h0v0a.29.29,0,0,1,.1.3c-.13.37-.45.65-.46,1a1.58,1.58,0,0,0,.28.8c.09.16.23.39.09.52-.62.58-.18,1.44.19,2a1.3,1.3,0,0,1-.35,1,.19.19,0,0,0,0,.28.19.19,0,0,0,.28,0,1,1,0,0,0,.52-.32,1.35,1.35,0,0,0-.07-1.72c-.35-.39,0-.79.05-1.2a1.75,1.75,0,0,0-.43-1.09.54.54,0,0,1-.06-.55c.16-.4.49-.78.38-1.24l0,0a.27.27,0,0,0-.17-.16v0c-.05-.27-.24-.55-.09-.82l-.1.09A1.26,1.26,0,0,0,38.06,76c-.23-.57-1-1.09-.57-1.76a0,0,0,0,0,0-.06,0,0,0,0,0,0,0"/><path class="cls-1" d="M41.37,75.2c-.36,0-.48.38-.51.67a1.23,1.23,0,0,0,.32.84.31.31,0,0,1,.06.24c-.09.32-.42.53-.45.87A1.47,1.47,0,0,0,41.4,79l.07.05-.13-.16v0c0,.42-.43.64-.55,1s.21.82.45,1.2a.11.11,0,0,1,0,.11,1.49,1.49,0,0,0-.45,1c0,.47.44.74.65,1.13a1.29,1.29,0,0,1-.61,1.19.09.09,0,0,0,.1.16,2.83,2.83,0,0,0,.86-.58A1.07,1.07,0,0,0,42,82.92c-.16-.25-.37-.43-.53-.68a.21.21,0,0,1,0-.24,2.13,2.13,0,0,0,.39-.8c0-.37-.26-.59-.44-.89,0-.07-.09-.16,0-.23.31-.43.7-.87.56-1.4l0,0a.31.31,0,0,0-.13-.17l0,0c-.11-.15-.07-.38-.34-.44.29-.35.66-.74.56-1.24a1.69,1.69,0,0,0-.56-.88c-.18-.18-.08-.42,0-.63a.06.06,0,0,0,0-.07s0,0-.06,0"/><path class="cls-1" d="M25.76,86.24s2.68-.19,4.2-.38,4.87,0,7.73-.12c3.1-.12,7.13-.48,7.13-.48a22.77,22.77,0,0,0,0-5,41.65,41.65,0,0,1-.11-6.14,29.06,29.06,0,0,1,.75,4.09c.11,1.56.27,3.61.38,4.58s.06.92.22,1.94a21.74,21.74,0,0,1,.19,2.38,10,10,0,0,1-3,.55,32.24,32.24,0,0,0-5.82,0,16.07,16.07,0,0,1-4.48.32c-2-.11-3.93,0-4.25.22s-1.08-.76-1.08-.76a28.84,28.84,0,0,1,4.58-.32,56,56,0,0,0,6.46-.31c1.08-.11,3,.24,3.88.15,2.22-.21,2.53-.76,2.53-.76s-1.76-.1-4.08,0-4.2.24-6,.24-4.55,0-5.63.12-2.63.3-2.63.3Z"/><path class="cls-1" d="M34.12,87.88s.16.8.31,1.57a6.37,6.37,0,0,0,2.2,3.06l1,.33-.28-.73a7.3,7.3,0,0,1-2-2.57,7,7,0,0,1,0-1.66Z"/><path class="cls-1" d="M43,87.4a18,18,0,0,0,.41,2.09,5.93,5.93,0,0,0,2.2,2.68,2.43,2.43,0,0,0,.9.74l.59,0-.23-.67a12.17,12.17,0,0,1-2.36-2.48c-.81-1.85-.17-1.85-.44-2.35-.17-.32-1.07,0-1.07,0"/><path class="cls-1" d="M20,60.34l.12.34S23,60,24.76,59.74s2.45-.24,5.3-.83S36.58,58,36.58,58s1.46,2.88,2.07,4.28S41.08,67,41.08,67a12.6,12.6,0,0,0-.89-3.21,34,34,0,0,1-2-3.9c-.38-.92-1.17-3.07-1.17-3.07s-2.13.57-2.28.59a.16.16,0,0,1-.19-.08,6.52,6.52,0,0,0-.11-1.67c-.16-.51-2.2-3.74-2.2-3.74l-.79-.51.33,1.15a16.69,16.69,0,0,1,1.56,2.64,9.33,9.33,0,0,1,.3,2.37l-8,1.46a21,21,0,0,0-1.34-3.25c-.24-.44-1.75-1.14-1.91-1.36L22,53.79l-.42-.3s-.31.92,0,1.32c.59.78,1.4.7,1.91,1.46a7.23,7.23,0,0,1,1.1,2.85l-4,.89Z"/><path class="cls-1" d="M36.34,58.89l.21-.38s-1.65.2-2.34.24-3.34.54-4.71.87-3.88.44-5.37.72S20,61.42,20,61.42a48.3,48.3,0,0,1,2.25,5.14c.53,1.69.77,4.46,1.66,6.09a4.22,4.22,0,0,0,2.82,2.14,12.32,12.32,0,0,1,3.7-.9c2.06-.17,4-.93,5.9-1.09A13.84,13.84,0,0,0,39.71,72a2.69,2.69,0,0,0-2.16-.47c-1.25.29-4.39,1.18-5.11,1.32s-2.65.34-3.45.58c-.61.19-2,.45-2,.45s-1.5-.31-2.37-2.57c-.79-2.08-.82-2.89-1.81-5-.76-1.66-2-4.59-2-4.59s1.59-.39,2.64-.63,1.25,0,4.12-.64,5.57-1.11,6.89-1.3c.5-.07,1.74-.21,1.81-.24"/><path class="cls-1" d="M27,74.58a21.91,21.91,0,0,0-.16,2.85C27,79.86,28,81.37,27.72,83a12.62,12.62,0,0,1-1.16,3.29L26,85.94a10.89,10.89,0,0,0,.7-3.44,49.33,49.33,0,0,1-.65-4.9,21.55,21.55,0,0,1,.38-2.91Z"/><path class="cls-1" d="M58,38.08c-.3-.76-1.43-2.42-1.63-2.94s.41-1.09,1-.9.63,1.21.63,1.21a1.12,1.12,0,0,1,1.44-.3.7.7,0,0,1,.15,1.17c-.36.39-1.26.11-1.26.11s-.67,1,.82,2.07c1.1.77,1.72,0,1.72,0a1.2,1.2,0,0,0,.9,1c.4.1,1.33.68,2.16-.88.18-.35.27-1,.15-1a3.48,3.48,0,0,0-.46,0,.7.7,0,0,1-.71-.68.69.69,0,0,1,.66-.72.7.7,0,0,1,.5.2v0s.41.55.93,0c.21-.23,0-.81,0-.81h0a.46.46,0,0,1,0-.21.62.62,0,0,1,1.23,0,.58.58,0,0,1-.4.55,1.16,1.16,0,0,0-.35.57c-.1.61.81.65.81.65l0,0h0a.69.69,0,0,1,.71.67.67.67,0,0,1-.71.67c-.48-.05-.75-.53-1-.48,0,0-1.46,1.86.45,2.7a2,2,0,0,0,1.85,0,1.79,1.79,0,0,0,1.39.86,2.44,2.44,0,0,0,2-1.43s-.92-.16-1-.64a.69.69,0,0,1,.75-.88,1.26,1.26,0,0,1,1.24.9,1.21,1.21,0,0,1,.8-.62c.55-.09,1,.69.59,1s-2.2,1.27-3.12,1.89a15.24,15.24,0,0,0-1.68,1.18c-.26.22-.44.5-.58.59l-.57-.22s0,0-1-.43-1.19-.51-1.19-.51a18.34,18.34,0,0,0-1.77-.7l-2.15-.75s.15.13-.92-.22l-1-.32-.6-.15,0-.09s-.3-1-.69-2m8.69-1.61a1.62,1.62,0,0,0-.44-.07m0,0a1.29,1.29,0,1,0-2-1.1,1.42,1.42,0,0,0,0,.36A1.57,1.57,0,0,0,63,35.59a1.33,1.33,0,0,0-1,1.34c0,.81.39,1.43,1.22,1.43h0c-.05.06,0,0,0,0A1,1,0,0,1,62,39a1.19,1.19,0,0,1-.91-1.29s-1,.71-1.64.31-.35-.8-.35-.8a1.46,1.46,0,0,0,1.47-1.87,1.61,1.61,0,0,0-2.1-.88s.14-.95-1.38-1.14c-1.1-.15-1.82,1.3-1.51,2,.16.34.27.43,1.26,2.11a13.36,13.36,0,0,1,1.28,2.67,1.71,1.71,0,0,1,0,.33,1.06,1.06,0,0,0,0,.35A24.48,24.48,0,0,1,62.87,42a37.92,37.92,0,0,1,5.47,2.36l0-.3a.59.59,0,0,0,0-.13,4.29,4.29,0,0,1,1.41-1.34c2.15-1.36,3-1.68,4.1-2.29.71-.4.45-1.73-.25-2.07-1.37-.66-1.82.13-1.82.13a1.72,1.72,0,0,0-2.3-.19,1.26,1.26,0,0,0,.29,2.16s0,.29-.86.5-1-1-1-1a1.89,1.89,0,0,1-1.89.39,1,1,0,0,1-.63-1.28c.26.43.56.37,1,.34a1.29,1.29,0,0,0,1.28-1.35,1.61,1.61,0,0,0-1.07-1.46"/><path class="cls-1" d="M59.71,42.68a5.42,5.42,0,0,1,1.2.93,5.72,5.72,0,0,1,.69,1,2.69,2.69,0,0,0-1.81,0c-.94.31-1.3,0-1.33-.34a1.08,1.08,0,0,1,.26-.69.37.37,0,0,0,.26.58,1,1,0,0,0,.78-.06s-.56-.07-.6-.38a.54.54,0,0,1,.38-.58s-.22-.16-.88,0c-.5.14-.51.58-.6.7s-.13,0-.09-.33c.07-.63-.11-1.38,1.74-.89"/><path class="cls-1" d="M64.46,32.21a.85.85,0,1,0-.85-.85.85.85,0,0,0,.85.85"/><path class="cls-1" d="M59.8,33.21a.55.55,0,1,0,0-1.1.55.55,0,1,0,0,1.1m-1.28-.55a1.29,1.29,0,1,1,1.28,1.26,1.27,1.27,0,0,1-1.28-1.26"/><path class="cls-1" d="M62.31,32.18a.42.42,0,1,0-.43-.42.42.42,0,0,0,.43.42m-1.06-.42a1.06,1.06,0,0,1,2.12,0,1.06,1.06,0,0,1-2.12,0"/><path class="cls-1" d="M66.08,27.07a1.86,1.86,0,0,0-.36.59,3.1,3.1,0,0,0-.15.93s1.54-.24,1.61.12a.72.72,0,0,1-.18.61l.93.32s-.06-.63.15-.69,1.29.9,1.29.9.27-.06.54-.63a.93.93,0,0,0-.06-.9s-1.53.3-1.53-.12,1.08-1.43,1.08-1.43a1.72,1.72,0,0,0-.83-.58c-.65-.18-.79-.05-.79-.05s-.06,1.77-.3,1.8a6.28,6.28,0,0,1-1.4-.87"/><path class="cls-1" d="M59,34.39a9.68,9.68,0,0,1,2.87-1.62,18.21,18.21,0,0,1,3.55-.86c.6-.17,1.14-.28,1.14-.28s.52.94.16,1.05-.93-.11-2,0a9.9,9.9,0,0,0-3.14,1A3.48,3.48,0,0,0,60,35Z"/><path class="cls-1" d="M68.35,33.33a.85.85,0,0,1,.87-1.46.85.85,0,0,1-.87,1.46"/><path class="cls-1" d="M71.68,38.68a10.68,10.68,0,0,0-1.62-3.47,17.44,17.44,0,0,0-2.51-2.64c-.41-.47-.81-.86-.81-.86s-.95.51-.7.8.83.41,1.68,1a9.8,9.8,0,0,1,2.07,2.55,4.68,4.68,0,0,1,.71,2.3Z"/><path class="cls-1" d="M71.94,36.9a.55.55,0,1,0,0-1.09.55.55,0,1,0,0,1.09m-.63.54A1.26,1.26,0,1,1,73.06,37a1.28,1.28,0,0,1-1.75.43"/><path class="cls-1" d="M67,31.42A.7.7,0,1,0,67,30a.7.7,0,1,0,0,1.4m-1.39-.7A1.4,1.4,0,1,1,67,32.11a1.4,1.4,0,0,1-1.39-1.39"/><path class="cls-1" d="M70.44,34.54a.42.42,0,0,0,.43-.41.43.43,0,0,0-.86,0,.42.42,0,0,0,.43.41m-.53.48a1,1,0,1,1,1.44-.35,1.05,1.05,0,0,1-1.44.35"/><path class="cls-1" d="M63.67,41.2c.29,0,.46-.32.46-.58a.54.54,0,0,0-1.06,0,.67.67,0,0,0,.6.58"/></svg>